<svg width="30" height="32" viewBox="0 0 30 32" fill="none" xmlns="http://www.w3.org/2000/svg">
<path d="M26.98 20.575V6.94995C26.98 6.84578 26.9539 6.75724 26.9019 6.68433C26.8498 6.61141 26.7821 6.55412 26.6987 6.51245L14.6987 0.512451C14.6779 0.491618 14.6466 0.475993 14.605 0.465576C14.5633 0.45516 14.5216 0.449951 14.48 0.449951C14.4383 0.449951 14.4019 0.45516 14.3706 0.465576C14.3394 0.475993 14.3029 0.491618 14.2612 0.512451V0.481201L1.26123 6.4812C1.1779 6.52287 1.11019 6.58537 1.05811 6.6687C1.00602 6.75203 0.97998 6.84578 0.97998 6.94995V22.95C0.97998 23.0541 1.00602 23.1479 1.05811 23.2312C1.11019 23.3145 1.1779 23.3666 1.26123 23.3875V23.4187L14.2612 29.4187C14.3029 29.4187 14.3394 29.4239 14.3706 29.4343C14.4019 29.4447 14.4383 29.45 14.48 29.45C14.5216 29.45 14.5633 29.4447 14.605 29.4343C14.6466 29.4239 14.6779 29.4083 14.6987 29.3875L17.9487 27.7625C18.4071 28.8666 19.1362 29.7572 20.1362 30.4343C21.1362 31.1114 22.2508 31.45 23.48 31.45C25.1466 31.45 26.5633 30.8666 27.73 29.7C28.8966 28.5333 29.48 27.1166 29.48 25.45C29.48 24.45 29.256 23.5281 28.8081 22.6843C28.3602 21.8406 27.7612 21.1479 27.0112 20.6062L26.98 20.575ZM19.6987 4.1062L9.01123 9.8562L6.26123 8.6062L17.2612 2.88745L19.6987 4.1062ZM8.47998 10.7312V18.7L5.97998 17.6062V9.57495L8.47998 10.7312ZM14.48 1.51245L16.1362 2.3562L5.26123 8.01245C5.2404 8.01245 5.21956 8.02287 5.19873 8.0437C5.1779 8.06453 5.15706 8.07495 5.13623 8.07495L2.66748 6.94995L14.48 1.51245ZM13.98 28.1687L1.97998 22.6375V7.7312L4.97998 9.1062V17.95C4.97998 18.0541 5.00602 18.1479 5.05811 18.2312C5.11019 18.3145 5.18831 18.377 5.29248 18.4187L8.79248 19.9187C8.81331 19.9187 8.83936 19.9239 8.87061 19.9343C8.90186 19.9447 8.93831 19.95 8.97998 19.95C9.12581 19.95 9.24561 19.9031 9.33936 19.8093C9.43311 19.7156 9.47998 19.5958 9.47998 19.45V11.2L13.98 13.2625V28.1687ZM14.48 12.3875L10.1362 10.3875L20.7925 4.6687L25.355 6.94995L14.48 12.3875ZM17.6362 26.825L14.98 28.1375V13.2625L25.98 7.76245V19.9812C25.605 19.8145 25.2091 19.6843 24.7925 19.5906C24.3758 19.4968 23.9383 19.45 23.48 19.45C21.8133 19.45 20.3966 20.0385 19.23 21.2156C18.0633 22.3927 17.48 23.8041 17.48 25.45C17.48 25.7 17.4956 25.9395 17.5269 26.1687C17.5581 26.3979 17.5946 26.627 17.6362 26.8562V26.825ZM23.48 30.45C22.105 30.45 20.9279 29.9604 19.9487 28.9812C18.9696 28.002 18.48 26.825 18.48 25.45C18.48 24.075 18.9696 22.8979 19.9487 21.9187C20.9279 20.9395 22.105 20.45 23.48 20.45C24.855 20.45 26.0321 20.9395 27.0112 21.9187C27.9904 22.8979 28.48 24.075 28.48 25.45C28.48 26.825 27.9904 28.002 27.0112 28.9812C26.0321 29.9604 24.855 30.45 23.48 30.45ZM25.6362 24.1062L22.98 26.7312L21.8237 25.6062C21.7821 25.5645 21.73 25.5281 21.6675 25.4968C21.605 25.4656 21.5425 25.45 21.48 25.45C21.3341 25.45 21.2144 25.4968 21.1206 25.5906C21.0269 25.6843 20.98 25.8041 20.98 25.95C20.98 26.0125 20.9956 26.075 21.0269 26.1375C21.0581 26.2 21.0946 26.252 21.1362 26.2937L22.6362 27.7937C22.6779 27.8354 22.73 27.8718 22.7925 27.9031C22.855 27.9343 22.9175 27.95 22.98 27.95C23.0425 27.95 23.105 27.9343 23.1675 27.9031C23.23 27.8718 23.2821 27.8354 23.3237 27.7937L26.3237 24.7937C26.3654 24.752 26.4019 24.7 26.4331 24.6375C26.4644 24.575 26.48 24.5125 26.48 24.45C26.48 24.3041 26.4331 24.1843 26.3394 24.0906C26.2456 23.9968 26.1258 23.95 25.98 23.95C25.9175 23.95 25.855 23.9656 25.7925 23.9968C25.73 24.0281 25.6779 24.0645 25.6362 24.1062Z" fill="#646464"/>
</svg>
