<svg xmlns="http://www.w3.org/2000/svg" viewBox="0 0 294.43 333.48"><defs><style>.cls-1{isolation:isolate;}.cls-18,.cls-2{fill:#455218;}.cls-3{fill:#99c12a;}.cls-4{fill:#7c943a;}.cls-5{fill:#e36b00;}.cls-6{fill:#d15e00;}.cls-7{fill:#c74600;}.cls-8{fill:#7e9e2c;}.cls-9{fill:#b3c948;}.cls-10{fill:#e74641;}.cls-11{fill:#e7807d;}.cls-12{fill:#c9bdbd;}.cls-12,.cls-17{mix-blend-mode:multiply;}.cls-13{fill:#ecc54a;}.cls-14{fill:#683c1d;}.cls-15{fill:#814c2e;}.cls-16{fill:#fff;opacity:0.59;}.cls-17{fill:#d9cccc;}.cls-18{font-size:36px;font-family:BeVietnamPro-ExtraBold, Be Vietnam Pro;font-weight:800;}.cls-19{font-size:24px;fill:#48402e;font-family:BeVietnamPro-ExtraLightItalic, Be Vietnam Pro;font-weight:200;font-style:italic;letter-spacing:0.2em;}.cls-20{letter-spacing:0.2em;}.cls-21{letter-spacing:0.14em;}.cls-22{letter-spacing:0.18em;}.cls-23{letter-spacing:0.2em;}.cls-24{letter-spacing:0.24em;}</style></defs><g class="cls-1"><g id="Layer_2" data-name="Layer 2"><g id="OBJECTS"><path class="cls-2" d="M231.81,22.73c3.58,1.15,17.8,9.28,21,10.37-3.27,7.3-4.64,13.06-11.16,21.86,8.8-8.28,11.29-12.75,15.74-20.3l7.78,2.61C255,51.68,238.13,70.84,235.43,70.84a.41.41,0,0,1-.16,0,5.8,5.8,0,0,1-2.9-4.08,4.75,4.75,0,0,1-2.21.49c-2.57,0-5.5-1.54-6.21-3.09-.4-.87,9.05-27.45,7.86-41.4m0-5.67a5.65,5.65,0,0,0-5.65,6.15c.79,9.26-4,26-6.32,34.08-1.71,6-2,7.06-1,9.2,1.73,3.79,6.36,6,10.27,6.35a9.79,9.79,0,0,0,4,3.2,6.13,6.13,0,0,0,2.36.47h0c2.73,0,5-1.68,8.27-4.79,2.18-2.08,5-5,8-8.51a289.15,289.15,0,0,0,18.07-22.66A5.67,5.67,0,0,0,267,31.89L264.43,31l-5.21-1.75a5.68,5.68,0,0,0-1.81-.3,4.58,4.58,0,0,0-.64,0,5.66,5.66,0,0,0-2.12-1.3c-1.13-.38-5.82-2.85-8.92-4.48-6.13-3.22-10-5.22-12.19-5.92a5.73,5.73,0,0,0-1.73-.27Z"/><path class="cls-3" d="M257.41,34.66c-4.45,7.55-6.94,12-15.74,20.3,6.52-8.8,7.89-14.56,11.16-21.86-3.22-1.09-17.44-9.22-21-10.37,1.19,14-8.26,40.53-7.86,41.4.93,2,5.67,4,8.42,2.6a5.8,5.8,0,0,0,2.9,4.08c2.11.89,19.48-18.81,29.92-33.54Z"/><path class="cls-4" d="M257.41,34.66c-4.45,7.55-6.94,12-15.74,20.3,6.52-8.8,7.89-14.56,11.16-21.86A26,26,0,0,1,250,31.82c-.23.33-.47.64-.71,1-1.57,6.7-2.88,13-10.78,16.4a22.11,22.11,0,0,1-10.93,1.58c-2,7.35-3.78,13-3.6,13.38.93,2,5.67,4,8.42,2.6a5.8,5.8,0,0,0,2.9,4.08c2.11.89,19.48-18.81,29.92-33.54Z"/><path class="cls-5" d="M218.91,122.34c-2.72,5.39-6.59,10-10.58,15.64-3.66,5.17-7.37,11.66-11.78,16.91a259,259,0,0,1-23.26,24.75c-2.38,2.18-14,10.51-14.52.59-.21-3.68,1.89-7.22,3.23-10.13,2.24-4.88,4.85-9.71,7-14.94s3.83-10.67,5.87-16c2.17-5.68,5.3-10.85,7.64-16.17,4.34-9.86,8.56-19,12.31-29.29,1.86-5.12,5.31-9.19,7.61-14.35,2-4.55,2.51-10,5.75-13.91,5.84-7.07,18.88-8.43,26.88-4.14,5.63,3,8.21,8.8,8.94,14.95.71,5.94-2.21,9.75-5.56,14.31-4.08,5.55-6.45,12.73-10.08,18.54C225.21,114.21,221.22,117.78,218.91,122.34Z"/><path class="cls-2" d="M224.48,58.88a22.77,22.77,0,0,1,10.6,2.44c5.64,3,8.21,8.8,8.94,14.95.71,6-2.21,9.75-5.55,14.3-4.09,5.56-6.45,12.75-10.08,18.55-3.19,5.09-7.18,8.66-9.48,13.22-2.71,5.39-6.58,10-10.58,15.65-.54.77-1.09,1.56-1.63,2.39l-2.16,3.24a113.2,113.2,0,0,1-8,11.26q-6.33,7.53-12.42,14l-1.44,1.5c-3.17,3.32-6.29,6.4-9.4,9.23-1.54,1.4-6.88,5.35-10.64,5.35-2.09,0-3.69-1.22-3.89-4.76S160.66,173,162,170.1c2.24-4.88,4.85-9.72,7-14.94.56-1.34,1.09-2.69,1.59-4.07.12-.34.24-.65.37-1,1.32-3.62,2.52-7.32,3.91-10.92,2.18-5.69,5.3-10.85,7.65-16.16,2-4.6,4-9,5.94-13.52.45-1,.86-2,1.28-2.94,1.76-4.15,3.47-8.38,5.09-12.83,1.87-5.14,5.31-9.21,7.61-14.36,2-4.55,2.51-10,5.75-13.91,3.62-4.39,10-6.58,16.27-6.58m0-5.67v0h0c-8.47,0-16.19,3.23-20.65,8.65-2.78,3.38-4,7.26-5,10.69a41.94,41.94,0,0,1-1.55,4.5,53.81,53.81,0,0,1-3.22,5.85,50.39,50.39,0,0,0-4.55,8.89c-1.44,3.94-3,7.93-5,12.56l-.33.76c-.29.68-.57,1.36-.88,2a.37.37,0,0,0-.05.11c-1.23,2.85-2.47,5.65-3.78,8.61-.72,1.61-1.43,3.23-2.16,4.87-.9,2.05-1.94,4.1-3.05,6.27a108.88,108.88,0,0,0-4.69,10.13c-.89,2.3-1.7,4.63-2.48,6.87-.48,1.37-1,2.73-1.44,4.09-.14.36-.27.71-.4,1.07-.45,1.23-.94,2.48-1.5,3.83-1.27,3.05-2.76,6.08-4.19,9-.91,1.86-1.86,3.79-2.74,5.71l-.63,1.31c-1.42,2.93-3.36,6.93-3.11,11.5.42,7.47,5.41,10.12,9.55,10.12,6.83,0,14.13-6.53,14.44-6.81,3.12-2.84,6.37-6,9.68-9.5l.93-1,.52-.55c4-4.25,8.14-8.92,12.67-14.3a119,119,0,0,0,8.4-11.82c.7-1.07,1.41-2.14,2.11-3.17l0,0c.51-.77,1-1.54,1.54-2.25,1-1.48,2.11-2.93,3.14-4.33a83.1,83.1,0,0,0,7.86-12,36.71,36.71,0,0,1,4.27-6,68.34,68.34,0,0,0,4.94-6.72,87.86,87.86,0,0,0,4.58-8.67A59.61,59.61,0,0,1,243,93.93l.26-.35c3.42-4.67,7.31-10,6.35-18-1.07-9-5.18-15.67-11.89-19.27a28.19,28.19,0,0,0-13.27-3.11Z"/><path class="cls-5" d="M239.88,88.63c-.45.64-.93,1.28-1.4,1.94a37.61,37.61,0,0,0-2.12,3.24c-2.9,4.94-5,10.58-8,15.31-3.19,5.08-7.19,8.66-9.48,13.21-.4.8-.83,1.58-1.28,2.36-1,1.76-2.16,3.46-3.39,5.17-1.83,2.6-3.86,5.22-5.91,8.12-.53.78-1.08,1.57-1.63,2.4-.7,1-1.44,2.14-2.15,3.25a114.91,114.91,0,0,1-8,11.25q-6.31,7.53-12.42,14c-.49.5-1,1-1.43,1.51q-4.74,5-9.4,9.22c-2.39,2.16-14,10.51-14.53.59-.21-3.68,1.89-7.23,3.23-10.14,2.25-4.87,4.84-9.7,7-14.93.55-1.34,1.09-2.69,1.6-4.07.11-.33.24-.65.37-1,1.31-3.62,2.5-7.31,3.9-10.92,2.19-5.69,5.3-10.85,7.64-16.15,2-4.61,4-9.07,5.95-13.52.45-1,.86-2,1.28-3,1.43-3.38,2.83-6.81,4.17-10.37.32-.82.62-1.64.92-2.46a30.8,30.8,0,0,1,1.7-3.79c1.86-3.51,4.2-6.73,5.91-10.57,2-4.56,2.51-10,5.76-13.9,5.82-7.09,18.87-8.43,26.86-4.15,5.65,3,8.21,8.8,8.95,14.95C244.64,81.35,242.58,84.88,239.88,88.63Z"/><path class="cls-6" d="M243.12,71.79c-.23.57-.44,1.09-.63,1.51-1.87,4.16-3.54,8.41-5.42,12.57-3.55,7.85-9,15.89-15.81,21.27s-17.24,8.62-25.7,5a18.73,18.73,0,0,1-6.27-4.46q-.39.93-.81,1.86c-1.91,4.45-3.92,8.91-5.95,13.52-2.34,5.3-5.45,10.46-7.64,16.15-1.4,3.61-2.59,7.3-3.9,10.92-.13.34-.26.66-.37,1-.51,1.38-1.05,2.73-1.6,4.07-2.18,5.23-4.77,10.06-7,14.93-1.34,2.91-3.44,6.46-3.23,10.14.56,9.92,12.14,1.57,14.53-.59q4.66-4.24,9.4-9.22c.47-.5.94-1,1.43-1.51q6.12-6.49,12.42-14a114.91,114.91,0,0,0,8-11.25c.71-1.11,1.45-2.21,2.15-3.25.55-.83,1.1-1.62,1.63-2.4,2-2.9,4.08-5.52,5.91-8.12,1.23-1.71,2.36-3.41,3.39-5.17.45-.78.88-1.56,1.28-2.36,2.29-4.55,6.29-8.13,9.48-13.21,3-4.73,5.07-10.37,8-15.31a37.61,37.61,0,0,1,2.12-3.24c.47-.66,1-1.3,1.4-1.94,2.7-3.75,4.76-7.28,4.15-12.36A27.57,27.57,0,0,0,243.12,71.79Z"/><path class="cls-7" d="M236.36,93.81a19.07,19.07,0,0,1-2.17-1.17,26,26,0,0,1-9.32-9.77c4.91,1.29,7.65,1.74,12.8,4.5.8.42,1.52.85,2.21,1.26Z"/><path class="cls-7" d="M212,101.08a53.51,53.51,0,0,1-18.11-4.89c.32-.82.62-1.64.92-2.46a30.8,30.8,0,0,1,1.7-3.79l.65.25C202.44,92.23,206.44,96.21,212,101.08Z"/><path class="cls-7" d="M217.63,124.69c-1,1.76-2.16,3.46-3.39,5.17-4.88-3.09-8.52-6.76-12.5-10.91C201.74,119,207.8,119,217.63,124.69Z"/><path class="cls-2" d="M173.66,139.71c-.7,1.94-1.48,3.87-2.31,5.79,7.43,3.95,17.11,9,17.11,9A85.24,85.24,0,0,0,173.66,139.71Z"/><path class="cls-2" d="M251,27.79S248.85,42.53,241.67,55c0,0,11.13-6.75,19.13-22.77Z"/><path class="cls-2" d="M85.32,134a39.46,39.46,0,0,0,.73,6.72c.55,3.2.62,10.3,5.5,14.53,3,2.57,9.75,7.41,14.62,10.82a70.31,70.31,0,0,1-11.75,16.1c-4.11-3.54-9.38-7.85-12.73-9.7a27.45,27.45,0,0,0-13.59-3.83c-.61,0-1.2,0-1.78.06-4.21.29-14.25,2.66-14.25,2.66l1.68-6s10.28-1.82,15.09-1.82l.67,0h.11c4,0-12.16-10.52-12.16-10.52l2.41-6.34s9.24,8.15,11.72,8.15a.63.63,0,0,0,.44-.15c1.46-1.44-5.56-8.6-5.56-8.6l4.64-5.78s4.47,8.81,8.65,9.71a4.13,4.13,0,0,0,.86.1c3,0,1.3-4.76.24-8.72a38.4,38.4,0,0,0-2.45-6.87l6.91-.58m.05-5.68a4.71,4.71,0,0,0-.53,0l-6.9.58a5.67,5.67,0,0,0-5.18,6,5.55,5.55,0,0,0-1.06-.22,5.83,5.83,0,0,0-.59,0,5.66,5.66,0,0,0-4.42,2.12l-4,5a5.72,5.72,0,0,0-2.8-.74,5.78,5.78,0,0,0-1.37.17,5.69,5.69,0,0,0-3.94,3.49L52.16,151a5.67,5.67,0,0,0,2.21,6.77l2.07,1.37c-1.89.29-3.3.54-3.68.6a5.69,5.69,0,0,0-4.47,4.05l-1.68,6A5.68,5.68,0,0,0,52.07,177a5.26,5.26,0,0,0,1.3-.16,128.34,128.34,0,0,1,13.34-2.51c.47,0,.94-.05,1.39-.05a21.81,21.81,0,0,1,10.84,3.12c1.35.74,4.66,2.91,11.78,9a5.69,5.69,0,0,0,7.76-.33,76.61,76.61,0,0,0,12.69-17.39,5.68,5.68,0,0,0-1.75-7.32c-7-4.89-12-8.61-14.16-10.47-2.47-2.14-3-6.21-3.34-9.18-.09-.71-.17-1.39-.28-2a38.44,38.44,0,0,1-.65-5.63,5.57,5.57,0,0,0-5.62-5.82Zm-.05,11.35h0Z"/><path class="cls-8" d="M81.69,172.42c3.35,1.85,8.62,6.16,12.73,9.7A70.31,70.31,0,0,0,106.17,166c-4.87-3.41-11.66-8.25-14.62-10.82-4.88-4.23-5-11.33-5.5-14.53a39.46,39.46,0,0,1-.73-6.72l-6.91.58a38.4,38.4,0,0,1,2.45,6.87c1.15,4.3,3.08,9.53-1.1,8.62s-8.65-9.71-8.65-9.71l-4.64,5.78s7,7.16,5.56,8.6-12.16-8-12.16-8L57.46,153S74,163.74,69.51,163.55s-15.76,1.8-15.76,1.8l-1.68,6s10-2.37,14.25-2.66S75.54,169,81.69,172.42Z"/><path class="cls-2" d="M60.55,109.46c5.83,0,10.42,5,10.42,5a7.1,7.1,0,0,1,6.48-4.18,10.34,10.34,0,0,1,6.8,2.86,13.61,13.61,0,0,1-9.54,23.69,13.16,13.16,0,0,1-6.79-1.81,17,17,0,0,1-8.26,12.49A14.16,14.16,0,0,1,55.81,149a1,1,0,0,1,.13.16c2.26,3.12,2.18,7.67.38,11.08-1.93,3.65-4.89,6.46-8.84,6.46-.3,0-.6,0-.91-.05,1.07,2.24-.18,6.78-1.66,8.45C43.23,177,39.46,178,36.37,178a10.67,10.67,0,0,1-2.52-.28,14.85,14.85,0,0,1-7.92-5.2c-2.51-3.1-4.41-6.78-4-10.75s2.77-8.72,6.73-9.24c-4.76-3.4-4.4-9.32-2.41-13a7.21,7.21,0,0,1,3.9-3.36,15.7,15.7,0,0,1,.19-11.09c2.33-5.39,7.42-9.88,13.23-9.88a12.43,12.43,0,0,1,6.83,2.15,11.55,11.55,0,0,1,5.44-6.74,10,10,0,0,1,4.69-1.17m0-5.67h0a15.72,15.72,0,0,0-7.31,1.81,16,16,0,0,0-5.33,4.51,17.07,17.07,0,0,0-4.32-.56c-7.59,0-15,5.35-18.43,13.3a20.77,20.77,0,0,0-1.39,10.75,12.88,12.88,0,0,0-2.49,3.25,16.61,16.61,0,0,0-.82,14.3,19,19,0,0,0-4.15,10c-.54,5,1.21,10,5.21,14.92a20.57,20.57,0,0,0,10.92,7.13,16,16,0,0,0,3.93.46c3.92,0,9.62-1.27,12.78-4.84a15.9,15.9,0,0,0,3.24-7.39c3.6-1.37,6.69-4.31,8.94-8.58a17.31,17.31,0,0,0,1.77-10.76,22,22,0,0,0,8.57-9.8,20.43,20.43,0,0,0,3,.23A19.28,19.28,0,0,0,88.09,109a16,16,0,0,0-10.64-4.36,12.45,12.45,0,0,0-7.08,2.14,18.8,18.8,0,0,0-9.82-3Z"/><path class="cls-9" d="M71,114.5s-7.25-8-15.11-3.87a11.55,11.55,0,0,0-5.44,6.74c-8.36-5.44-16.85.29-20.06,7.73a15.7,15.7,0,0,0-.19,11.09,7.21,7.21,0,0,0-3.9,3.36c-2,3.67-2.35,9.59,2.41,13-4,.52-6.3,5.28-6.73,9.24s1.47,7.65,4,10.75a14.85,14.85,0,0,0,7.92,5.2c3.18.81,8.88-.19,11.06-2.65,1.48-1.67,2.73-6.21,1.66-8.45,4.41.47,7.68-2.48,9.75-6.41,1.8-3.41,1.88-8-.38-11.08a1,1,0,0,0-.13-.16,14.16,14.16,0,0,0,3.85-1.43,17,17,0,0,0,8.26-12.49,13.72,13.72,0,0,0,16.33-21.88C80.32,109.56,73.94,108.75,71,114.5Z"/><path class="cls-4" d="M43.13,148.09c2.31,6.37,1.65,12.61-2.05,17.13C37.15,170,24.82,169.29,21.9,163c0,3.49,1.79,6.72,4,9.49a14.85,14.85,0,0,0,7.92,5.2c3.18.81,8.88-.19,11.06-2.65,1.48-1.67,2.73-6.21,1.66-8.45,4.41.47,7.68-2.48,9.75-6.41a11.43,11.43,0,0,0,.76-8.83A29.65,29.65,0,0,1,43.13,148.09Z"/><path class="cls-2" d="M55.81,149c-1.84.28-7.28,1.47-12.1-.47,0,0,5.57,8.25,13.72,6.48s8.48-7.69,8.48-7.69S57.76,148.68,55.81,149Z"/><path class="cls-2" d="M50.42,117.37s5.6,3.38,7.25,6.54c0,0-.25-9.92-8.15-13.84Z"/><path class="cls-2" d="M23.75,170s-3.07-8,1.52-12.32a9.6,9.6,0,0,1,9.38-2.11s-2.59-4.68-7.49-4.7c-6.68,0-8.67,6.61-8.67,6.61Z"/><path class="cls-2" d="M67.92,135.06a30.79,30.79,0,0,0-2-11s8.73,2.65,8.32,15.17Z"/><path class="cls-2" d="M30.17,136.19s2.26,5.38,5.72,6.23c0,0-10.43,2.58-12.53-6.42Z"/><path class="cls-10" d="M273.91,119.22c6.8,27.93.2,53.76-38.23,65.93-39.07,12.38-58.61-4.35-69.38-30.72-.54-1.32-.19-4.46,1-4.84l102.78-33.16C271.2,116.07,273.61,118,273.91,119.22Z"/><path class="cls-2" d="M270.38,116.39a4.92,4.92,0,0,1,3.53,2.83c6.8,27.93.2,53.76-38.23,65.93a80,80,0,0,1-24,4.16c-23.59,0-37.07-14.58-45.36-34.88-.54-1.32-.19-4.46,1-4.84l102.78-33.16a1.06,1.06,0,0,1,.31,0m0-5.67h0a6.76,6.76,0,0,0-2.05.32L165.55,144.2a7,7,0,0,0-4.18,3.83,11.7,11.7,0,0,0-.32,8.54c4.88,12,10.95,20.86,18.54,27.25,8.81,7.41,19.6,11.16,32.07,11.16a86.22,86.22,0,0,0,25.73-4.42c36.27-11.49,50.8-36.62,42-72.68-.89-3.68-5.29-7.16-9-7.16Z"/><path class="cls-11" d="M259.29,128c5.37,19-1.21,37.84-27.18,46.06-26.54,8.41-42.23-3-49-21.49Z"/><path class="cls-10" d="M226.36,148c2.82,4.71,7.23,12,7.44,17.1s-5.34,5.63-6.94,2.29c-2.3-4.81-3.4-14.79-3.66-18.27S223.93,143.93,226.36,148Z"/><path class="cls-10" d="M216.56,151.9c.69,4.93,1.79,12.63,0,16.86s-7.15,2.59-7.27-.76c-.18-4.82,2.82-13.44,4-16.39S216,147.62,216.56,151.9Z"/><path class="cls-10" d="M208,153.67c-2.21,3.32-5.63,8.52-9.06,9.9s-5.91-2.78-4.2-4.82c2.47-2.94,9-6.21,11.29-7.26S209.9,150.8,208,153.67Z"/><path class="cls-10" d="M231.73,147c2.33,4.41,5.93,11.3,9.89,13.66s7.31-2.07,5.45-4.86c-2.67-4-10.13-9.26-12.79-11S229.72,143.19,231.73,147Z"/><path class="cls-10" d="M239.72,143.44c3.73,1.4,9.54,3.62,13.13,2.74s3.18-5.71.59-6.37c-3.72-.94-10.92.21-13.4.71S236.49,142.22,239.72,143.44Z"/><path class="cls-12" d="M245.4,167.94a37.7,37.7,0,0,1-19.46-4.35c-17.94-9.92-17.41-23.89-18.83-26.85l-39.82,12.85c-1.18.38-1.53,3.52-1,4.84,10.77,26.37,30.31,43.1,69.38,30.72,23.95-7.59,35.54-20.48,39.22-35.88C269.38,158.84,259.28,167.58,245.4,167.94Z"/><path class="cls-2" d="M121.92,60.32c.51,3.58-8.39,5.91-12,5.64-3-.24-1.65-5.11-1.8-8.21-.2-4.16-4.13-13.77-6.06-19.42-1.56-4.53,3.88-4.79,5.17-3.87a0,0,0,0,1,0,0c2.14,1.59,4.31,9.67,6.25,15.33S121.42,56.76,121.92,60.32Z"/><path class="cls-2" d="M122,57.62a24.47,24.47,0,0,1,15.63,5.78A31.06,31.06,0,0,1,141,66.53c7.66,8.39,9.58,11.26,30,30.28,19.4,18.08,42.76,48.08,30.09,76-10,22-29.46,31-37.51,32.92a54.57,54.57,0,0,1-20.86,3.84,60.75,60.75,0,0,1-28.93-7.27c-27-14.51-25.45-52.32-22.15-78.67.35-2.86.68-5.48,1-7.89,2.17-17.67,2.77-24,3.48-34,.29-4,3.33-17.91,17.07-22.55A27.65,27.65,0,0,1,122,57.62M122,52h0a33.55,33.55,0,0,0-10.69,1.83C96,59,90.94,74,90.42,81.29,89.69,91.38,89.09,97.67,87,115l-.68,5.5L86,122.92c-1.47,11.77-3.1,29.3-.24,45.46C89,186.92,97.55,200,111.09,207.29a66.08,66.08,0,0,0,31.61,7.94,60.26,60.26,0,0,0,22.67-4.12c10.55-2.72,30.51-13.18,40.86-36,14.77-32.56-13.32-65.66-31.38-82.49-16.89-15.72-21-20.31-26.24-26.13-1.07-1.19-2.19-2.43-3.46-3.82A34.12,34.12,0,0,0,141.21,59,30.15,30.15,0,0,0,122,52Z"/><path class="cls-8" d="M201.07,172.8c-10,22-29.46,31-37.51,32.92-7.59,3.34-28.48,8-49.79-3.43-27-14.51-25.45-52.32-22.15-78.67.35-2.86.68-5.48,1-7.89,2.17-17.67,2.77-24,3.48-34,.29-4,3.33-17.91,17.07-22.55,10.5-3.54,18.76-.44,24.51,4.25A31.06,31.06,0,0,1,141,66.53c7.66,8.39,9.58,11.26,30,30.28C190.38,114.89,213.74,144.89,201.07,172.8Z"/><path class="cls-13" d="M190,170.9c-7.49,18.46-22.74,25.64-29.09,27.12-6,2.67-22.44,6.21-39.58-3.92C99.54,181.24,100,149.24,102.08,127c.22-2.42.43-4.63.61-6.67,1.36-14.93,1.7-20.32,2.07-28.76.14-3.35,2.27-15.11,13.09-18.76,8.25-2.79,14.87,0,19.53,4.1a25.73,25.73,0,0,1,2.7,2.73c6.25,7.26,7.84,9.73,24.44,26.27C180.29,121.6,199.43,147.5,190,170.9Z"/><path class="cls-14" d="M169.94,140.62c5.72,15.11-.33,31.4-13.5,36.39s-28.48-3.23-34.19-18.34c-6.82-18-3.73-42.08,9.44-47.07,4.72-1.78,10.08-.88,15.34,1.84C156.46,118.31,165.56,129.05,169.94,140.62Z"/><path class="cls-15" d="M127.22,118.89c-3.87,6.27-5.16,22-.85,34.23s13.94,13.72,21.93,11.71,12.78-17.72,8-28.78C148.64,118.58,135.15,106.06,127.22,118.89Z"/><path class="cls-16" d="M131.5,125.4c-4.89,4.85-4.78,18.4-.38,23.56s5.36-1.89,6.08-6.1c.53-3,2.16-24.5-5.47-17.67Z"/><path class="cls-17" d="M158.76,185c-37.57,6.74-65.7-24.83-68.89-33.77.37,20.51,5.51,41.19,23.9,51.07,21.31,11.45,42.2,6.77,49.79,3.43,8.05-1.95,27.5-10.89,37.51-32.92,4.48-9.87,4.44-20,1.68-29.78C193.93,173.26,188.46,179.66,158.76,185Z"/><path class="cls-2" d="M126.19,239.15h10.1c2.18,3,4.37,7.09,7,7.1s4.28-2.06,7.45-5.07c0,0,9.51,3.2,13.15,1.39l-1.45-15.5-36.23-3.37Z"/><path class="cls-2" d="M208,177.7a99.55,99.55,0,0,1,17.68,1.56c35.81,6.49,42.73,12.89,42.73,12.89s-32.37,24.43-55.53,38.31c-10.79,6.46-23.73,8.19-34.48,8.19a103.13,103.13,0,0,1-21.76-2.27c21.8-30,56.89-38.1,56.89-38.1-1.39-.1-2.78-.15-4.15-.15-37.55,0-66.1,37.65-66.1,37.65,0-.3,0-.59,0-.89-.59-1.65-16.23-33.38-41.74-35.4,0,0,19.65,9.37,30.47,33.62a41.91,41.91,0,0,1-9,.91c-6.65,0-15.76-1.44-23-8-13-11.74-30.37-34.6-30.37-34.6s6.85-8.19,29.43-9.55c.79,0,1.58-.07,2.37-.07,20.07,0,41.67,15.09,42.25,39.37,3.94-30.63,34.77-43.49,64.3-43.49m0-5.67c-16.75,0-32.6,3.92-44.63,11.05a52.54,52.54,0,0,0-19,18.56,45.33,45.33,0,0,0-10.85-13.55,50.24,50.24,0,0,0-32.11-11.94c-.91,0-1.82,0-2.71.08-24.32,1.46-32.58,10.55-33.44,11.58a5.67,5.67,0,0,0-.16,7.06c.72.95,17.83,23.42,31.08,35.38,8.65,7.8,19.35,9.44,26.8,9.44a46.66,46.66,0,0,0,10.36-1.08,5.67,5.67,0,0,0,3.74-3,1.47,1.47,0,0,0,.1-.22l.41.78a5.66,5.66,0,0,0,10.17,3c.05-.07,1.2-1.55,3.27-3.87a5.66,5.66,0,0,0,4.25,6.56,108,108,0,0,0,23.08,2.43c14.85,0,27.43-3,37.39-9,23.16-13.87,54.71-37.64,56-38.65a5.68,5.68,0,0,0,.43-8.69c-1.36-1.25-9.94-7.84-45.57-14.3A105.88,105.88,0,0,0,208,172Z"/><path class="cls-9" d="M99.09,181.89c20.7-1.25,44,14.07,44.62,39.3,4.75-36.89,48.47-48,82-41.93,35.81,6.49,42.73,12.89,42.73,12.89s-32.37,24.43-55.53,38.31-58.35,5.92-58.35,5.92c21.8-30,59-38.1,59-38.1-39.58-2.95-70.25,38.55-70.25,38.55,0-.3,0,.46,0,.17-.59-1.65-14.2-32.57-41.74-37.51,0,0,20.71,9.37,31.52,33.62,0,0-20.06,4.66-33.06-7.07s-30.37-34.6-30.37-34.6S76.51,183.25,99.09,181.89Z"/><path class="cls-4" d="M232.18,212.54c-16.26,11-34,20.05-54.24,18.73a1.49,1.49,0,0,1-1.42-1.86c3.94-15.08,16.38-22.12,29-28.79-12.14,4.13-35.48,14.37-51,35.76,0,0,35.19,8,58.35-5.92s55.53-38.31,55.53-38.31a7.44,7.44,0,0,0-.8-.59C254.72,195.86,242.73,205.41,232.18,212.54Z"/><path class="cls-4" d="M102.38,199.88l-1-.44c6.5,5.84,12.35,12.9,18.81,24.26,0,0-5.47,1.65-14.38-2.22-10-4.36-11.63-6.2-21.2-11.66A191.28,191.28,0,0,0,100,226c13,11.73,33.06,7.07,33.06,7.07A70.78,70.78,0,0,0,102.38,199.88Z"/><path class="cls-2" d="M166.27,5.67a43.56,43.56,0,0,1,19.32,30.59c3.09,20.82-8.11,29.32-8.11,29.32C162.41,56.25,154.13,40.14,155.69,26c1.62-14.74,10.58-20.33,10.58-20.33m0-5.67a5.7,5.7,0,0,0-3,.86c-.46.29-11.31,7.24-13.22,24.51-1.84,16.73,8,34.83,24.44,45a5.67,5.67,0,0,0,6.41-.3c.57-.43,13.84-10.8,10.29-34.67S169.82,1.16,169.06.73A5.65,5.65,0,0,0,166.27,0Z"/><path class="cls-9" d="M177.48,65.58C162.41,56.25,154.13,40.14,155.69,26c1.62-14.74,10.58-20.33,10.58-20.33a43.56,43.56,0,0,1,19.32,30.59C188.68,57.08,177.48,65.58,177.48,65.58Z"/><path class="cls-4" d="M185.59,36.26A44.45,44.45,0,0,0,174.78,13a5.36,5.36,0,0,0,.37,1c3.5,5.89,8.85,24.18,2.39,38.42-.85,1.87-3.74-8.72-4.32-7.28-1,2.44-.22,9-.87,8.91-4.8-.26-10.92-6-13.78-10.21a47.78,47.78,0,0,0,18.91,21.74S188.68,57.08,185.59,36.26Z"/><path class="cls-2" d="M178,68c-2.35-2.87-5.21-9.78-7.2-21.37-.81-4.74-1.82-11.62-2.26-16-.26-2.64.33-3.55,1.42-1,1.66,3.91,3.44,11.12,6,17.76a67.1,67.1,0,0,1,3.73,20.11Z"/></g><g id="TEXTS"><text class="cls-18" transform="translate(0.53 297.2) scale(1.01 1)">HEALTHY <tspan class="cls-8" x="182.27" y="0">FOOD</tspan></text><text class="cls-19" transform="translate(0 327.31)">THE B<tspan class="cls-20" x="90.31" y="0">E</tspan><tspan class="cls-21" x="108.79" y="0">S</tspan><tspan x="127.42" y="0">T Q</tspan><tspan class="cls-22" x="181.7" y="0">U</tspan><tspan class="cls-23" x="203.09" y="0">ALI</tspan><tspan class="cls-24" x="253.2" y="0">T</tspan><tspan class="cls-23" x="274.25" y="0">Y</tspan></text></g></g></g></svg>