<svg xmlns="http://www.w3.org/2000/svg" viewBox="0 0 455 282.02"><defs><style>.cls-1{fill:#7e4e24;}.cls-2{fill:#406b0f;}</style></defs><g id="Layer_2" data-name="Layer 2"><g id="Layer_1-2" data-name="Layer 1"><path class="cls-1" d="M36.22,170.69a6.17,6.17,0,0,1,6.17,6.17v85.78A6.8,6.8,0,0,1,40.82,267L30.29,279.59A6.77,6.77,0,0,1,25.1,282H6.76A6.76,6.76,0,0,1,0,275.26v-98.4a6.17,6.17,0,0,1,6.17-6.17Z"/><path class="cls-1" d="M334.69,170.69a6.17,6.17,0,0,1,6.17,6.17v85.78a6.8,6.8,0,0,1-1.57,4.34l-10.53,12.61a6.77,6.77,0,0,1-5.19,2.43H305.23a6.76,6.76,0,0,1-6.76-6.76v-98.4a6.17,6.17,0,0,1,6.17-6.17Z"/><path class="cls-1" d="M182.74,176.86v2a6.77,6.77,0,0,1-1.2,3.85l-10.91,15.81a6.8,6.8,0,0,1-5.57,2.91H147.11a6.76,6.76,0,0,1-6.76-6.76V176.86a6.17,6.17,0,0,1,6.17-6.17h30A6.17,6.17,0,0,1,182.74,176.86Z"/><path class="cls-1" d="M455,108.4v70.47a6.83,6.83,0,0,1-1.19,3.84l-10.93,15.81a6.77,6.77,0,0,1-5.56,2.91H419.37a6.76,6.76,0,0,1-6.76-6.76v-64.2a6.2,6.2,0,0,1,2.52-5l30.05-22.06A6.17,6.17,0,0,1,455,108.4Z"/><path class="cls-1" d="M451,74.35l-92.76,68.1a42.5,42.5,0,0,1-25.14,8.24H9.77A9.76,9.76,0,0,1,4,133.07L55.34,95.38a10.09,10.09,0,0,0,2.58.34h29a10,10,0,0,0,9.47-6.81l9.81-29.16a42.39,42.39,0,0,1,8.56-2.41V85.72a10,10,0,0,0,10,10h62.12a10,10,0,0,0,10-10V75.3a52.26,52.26,0,0,0,3.46,4.43,49,49,0,0,0,17.05,12.5,55.38,55.38,0,0,0,22.89,4.56,54,54,0,0,0,24.85-5.69,43.8,43.8,0,0,0,18.42-17.84c.27-.48.53-1,.78-1.45V85.72a10,10,0,0,0,10,10h62.13a10,10,0,0,0,10-10V63.78a10,10,0,0,0-2.91-7.05h81.69A9.76,9.76,0,0,1,451,74.35Z"/><polygon class="cls-2" points="57.92 85.72 29.44 1.06 55.04 1.06 72.41 55.44 89.78 1.06 115.39 1.06 86.9 85.72 57.92 85.72"/><polygon class="cls-2" points="124.74 85.72 124.74 1.06 186.33 1.06 186.33 23.01 149.13 23.01 149.13 32.21 181.55 32.21 181.55 53.41 149.13 53.41 149.13 63.78 186.87 63.78 186.87 85.72 124.74 85.72"/><path class="cls-2" d="M240.26,86.79a45.48,45.48,0,0,1-18.77-3.67,39.11,39.11,0,0,1-13.63-10,42.32,42.32,0,0,1-8.12-13.95,47.91,47.91,0,0,1-2.66-15.71,47.22,47.22,0,0,1,2.72-15.77,43.18,43.18,0,0,1,8.17-14,39.51,39.51,0,0,1,13.73-10A46.18,46.18,0,0,1,240.79,0a45.11,45.11,0,0,1,14.82,2.19A34.08,34.08,0,0,1,273,15.31a37.54,37.54,0,0,1,3.92,7.28A41.91,41.91,0,0,1,279,30.31l.66,3.54H255.64L255,31.8a17.67,17.67,0,0,0-2.48-5,11.76,11.76,0,0,0-4.12-3.22,20,20,0,0,0-17.86,1.52,18.74,18.74,0,0,0-6.3,7.82,25.48,25.48,0,0,0,.05,20.78,19.67,19.67,0,0,0,6.43,8,16.76,16.76,0,0,0,10.33,3c4.37,0,7.82-1,10.27-3a12.26,12.26,0,0,0,3.49-4.57H236.3V36.78h43.63v9.27c0,8.77-1.72,16.28-5.11,22.31a34.06,34.06,0,0,1-14.27,13.85A44,44,0,0,1,240.26,86.79Z"/><polygon class="cls-2" points="294.31 85.72 294.31 1.06 355.91 1.06 355.91 23.01 318.7 23.01 318.7 32.21 351.12 32.21 351.12 53.41 318.7 53.41 318.7 63.78 356.44 63.78 356.44 85.72 294.31 85.72"/></g></g></svg>