<svg width="40" height="41" viewBox="0 0 40 41" fill="none" xmlns="http://www.w3.org/2000/svg">
<g id="Frame">
<g id="Group">
<g id="Page-1">
<g id="070---Pesticide">
<path id="Shape" d="M17.3334 1.25665V3.25665C17.3334 4.36122 16.4379 5.25665 15.3334 5.25665H11.3334C10.2288 5.25665 9.33337 4.36122 9.33337 3.25665V1.25665H17.3334Z" fill="#7F8E94"/>
<path id="Shape_2" d="M17.3334 9.25661V11.9233H9.33337V9.25661C9.33557 8.52114 9.93124 7.92548 10.6667 7.92328H16C16.7355 7.92548 17.3312 8.52114 17.3334 9.25661Z" fill="#60A917"/>
<path id="Shape_3" d="M22.6667 35.9233V37.9233C22.6667 39.0278 21.7712 39.9233 20.6667 39.9233H6C4.89543 39.9233 4 39.0278 4 37.9233V35.9233H22.6667Z" fill="#008A00"/>
<path id="Shape_4" d="M22.6667 18.3633L22.6667 35.9233H4L4 18.3633C3.99944 17.6558 4.28003 16.9771 4.78 16.4766L9.33333 11.9233H17.3333L21.8867 16.4766C22.3866 16.9771 22.6672 17.6558 22.6667 18.3633Z" fill="#A4C400"/>
<path id="Shape_5" d="M22.6667 18.3633L22.6667 35.9233H20.6667V18.3633C20.6673 17.6558 20.3867 16.9771 19.8867 16.4766L15.3334 11.9233H17.3334L21.8867 16.4766C22.3867 16.9771 22.6673 17.6558 22.6667 18.3633Z" fill="#90AC00"/>
<path id="Shape_6" d="M22.6667 35.9233V37.9233C22.6667 39.0278 21.7713 39.9233 20.6667 39.9233H18.6667C19.7713 39.9233 20.6667 39.0278 20.6667 37.9233V35.9233H22.6667Z" fill="#007900"/>
<path id="Oval" d="M13.3334 32.59C17.0153 32.59 20.0001 29.6052 20.0001 25.9233C20.0001 22.2414 17.0153 19.2567 13.3334 19.2567C9.65152 19.2567 6.66675 22.2414 6.66675 25.9233C6.66675 29.6052 9.65152 32.59 13.3334 32.59Z" fill="#F5F5F5"/>
<path id="Shape_7" d="M13.3334 19.2567C12.9984 19.2593 12.6641 19.2872 12.3334 19.34C15.5912 19.8298 18.0009 22.6289 18.0009 25.9233C18.0009 29.2178 15.5912 32.0168 12.3334 32.5067C14.807 32.8852 17.2842 31.8458 18.7472 29.8156C20.2102 27.7854 20.4123 25.1067 19.2706 22.8799C18.1289 20.6531 15.8358 19.2537 13.3334 19.2567Z" fill="#CFD8DC"/>
<g id="Shape_8">
<path fill-rule="evenodd" clip-rule="evenodd" d="M18.0467 21.21L8.62 30.6366Z" fill="black"/>
<path d="M18.0467 21.21L8.62 30.6366" stroke="black" stroke-width="1.33333" stroke-linejoin="round"/>
</g>
<g id="Group_2">
<path id="Shape_9" d="M14.9334 27.5233C14.2714 28.1846 13.0161 28.004 12.1334 27.1233C11.2508 26.2426 11.0668 24.9853 11.7334 24.3233C12.4001 23.6613 13.6508 23.8366 14.5334 24.7233C15.4161 25.61 15.5954 26.8566 14.9334 27.5233Z" fill="#FF9801"/>
<path id="Rectangle-path" d="M12 5.25665H14.6667V7.92332H12V5.25665Z" fill="#37474F"/>
<path id="Shape_10" d="M29.3334 26.59V31.2567C29.3312 31.9921 28.7355 32.5878 28.0001 32.59H22.6667V25.2567H28.0001C28.7355 25.2588 29.3312 25.8545 29.3334 26.59Z" fill="#607D8B"/>
<path id="Shape_11" d="M28 25.2567H26C26.7355 25.2588 27.3311 25.8545 27.3333 26.59V31.2567C27.3311 31.9921 26.7355 32.5878 26 32.59H28C28.7355 32.5878 29.3311 31.9921 29.3333 31.2567V26.59C29.3311 25.8545 28.7355 25.2588 28 25.2567Z" fill="#37474F"/>
<path id="Shape_12" d="M28.0001 21.9233V25.2567H25.3334V22.59C25.3334 22.2218 25.0349 21.9233 24.6667 21.9233H22.6667V19.2567H25.3334C26.8062 19.2567 28.0001 20.4506 28.0001 21.9233Z" fill="#FFDC00"/>
<path id="Shape_13" d="M35.3334 17.2567V34.9233C35.3334 37.6847 33.0948 39.9233 30.3334 39.9233C27.572 39.9233 25.3334 37.6847 25.3334 34.9233V32.59H28V34.9233C28 36.212 29.0447 37.2567 30.3334 37.2567C31.6195 37.2505 32.6605 36.2094 32.6667 34.9233V17.2567H35.3334Z" fill="#FFDC00"/>
<path id="Rectangle-path_2" d="M35.3333 11.9233H32.6667C32.2985 11.9233 32 12.2218 32 12.5899V16.5899C32 16.9581 32.2985 17.2566 32.6667 17.2566H35.3333C35.7015 17.2566 36 16.9581 36 16.5899V12.5899C36 12.2218 35.7015 11.9233 35.3333 11.9233Z" fill="#607D8B"/>
<path id="Shape_14" d="M36 5.25663V8.6833C35.9999 9.06538 35.9529 9.44601 35.86 9.81663L35.3333 11.9233H32.6667L32.14 9.81663C32.0471 9.44601 32.0001 9.06538 32 8.6833V5.25663C32 4.88844 32.2985 4.58997 32.6667 4.58997H35.3333C35.7015 4.58997 36 4.88844 36 5.25663Z" fill="#CFD8DC"/>
<path id="Shape_15" d="M10.6667 7.25663C9.56215 7.25663 8.66672 8.15206 8.66672 9.25663V11.6473L4.31005 16.004C3.68279 16.6278 3.33111 17.4766 3.33339 18.3613V37.9233C3.33339 39.3961 4.52729 40.59 6.00005 40.59H20.6667C22.1395 40.59 23.3334 39.3961 23.3334 37.9233V33.2566H24.6667V34.9233C24.6667 38.0529 27.2038 40.59 30.3334 40.59C33.463 40.59 36.0001 38.0529 36.0001 34.9233V17.738C36.4112 17.5017 36.6653 17.0642 36.6667 16.59V12.59C36.665 12.167 36.4626 11.7699 36.1214 11.52L36.5074 9.9753C36.6133 9.55257 36.6668 9.11842 36.6667 8.68263V5.25663C36.6667 4.52025 36.0698 3.9233 35.3334 3.9233H34.6667V1.25663C34.6667 0.888443 34.3682 0.589966 34.0001 0.589966C33.6319 0.589966 33.3334 0.888443 33.3334 1.25663V3.9233H32.6667C31.9303 3.9233 31.3334 4.52025 31.3334 5.25663V8.68263C31.3333 9.11842 31.3868 9.55257 31.4927 9.9753L31.8787 11.52C31.5375 11.7699 31.3352 12.167 31.3334 12.59V16.59C31.3348 17.0642 31.5889 17.5017 32.0001 17.738V34.9233C32.0001 35.8438 31.2539 36.59 30.3334 36.59C29.4129 36.59 28.6667 35.8438 28.6667 34.9233V33.134C29.463 32.8525 29.9966 32.1012 30.0001 31.2566V26.59C29.9966 25.7454 29.463 24.9941 28.6667 24.7126V21.9233C28.6645 20.0833 27.1734 18.5922 25.3334 18.59H23.3334V18.3613C23.3357 17.4766 22.984 16.6278 22.3567 16.004L18.0001 11.6473V9.25663C18.0001 8.15206 17.1046 7.25663 16.0001 7.25663H15.3334V5.9233C16.8061 5.9233 18.0001 4.72939 18.0001 3.25663V1.25663C18.0001 0.888443 17.7016 0.589966 17.3334 0.589966H9.33339C8.9652 0.589966 8.66672 0.888443 8.66672 1.25663V3.25663C8.66672 4.72939 9.86063 5.9233 11.3334 5.9233V7.25663H10.6667ZM24.6667 24.59H23.3334V22.59H24.6667V24.59ZM32.6667 16.59V12.59H35.3334V16.59H32.6667ZM32.6667 5.25663H35.3334V8.68263C35.3331 9.00961 35.293 9.33533 35.2141 9.65263L34.8134 11.2566H33.1867L32.7867 9.65263C32.7076 9.33536 32.6673 9.00963 32.6667 8.68263V5.25663ZM30.3334 37.9233C31.9895 37.9215 33.3315 36.5794 33.3334 34.9233V17.9233H34.6667V34.9233C34.6667 37.3165 32.7266 39.2566 30.3334 39.2566C27.9402 39.2566 26.0001 37.3165 26.0001 34.9233V33.2566H27.3334V34.9233C27.3352 36.5794 28.6773 37.9215 30.3334 37.9233ZM28.6667 31.2566C28.6667 31.6248 28.3682 31.9233 28.0001 31.9233H23.3334V25.9233H28.0001C28.3682 25.9233 28.6667 26.2218 28.6667 26.59V31.2566ZM25.3334 19.9233C26.438 19.9233 27.3334 20.8187 27.3334 21.9233V24.59H26.0001V22.59C26.0001 21.8536 25.4031 21.2566 24.6667 21.2566H23.3334V19.9233H25.3334ZM22.0001 18.3613V35.2566H20.0001C19.6319 35.2566 19.3334 35.5551 19.3334 35.9233C19.3334 36.2915 19.6319 36.59 20.0001 36.59H22.0001V37.9233C22.0001 38.6597 21.4031 39.2566 20.6667 39.2566H6.00005C5.26367 39.2566 4.66672 38.6597 4.66672 37.9233V36.59H17.3334C17.7016 36.59 18.0001 36.2915 18.0001 35.9233C18.0001 35.5551 17.7016 35.2566 17.3334 35.2566H4.66672V18.3613C4.66547 17.8304 4.87646 17.3211 5.25272 16.9466L9.60938 12.59H17.0574L21.4141 16.9466C21.7906 17.3209 22.0016 17.8304 22.0001 18.3613ZM16.6667 9.25663V11.2566H10.0001V9.25663C10.0001 8.88844 10.2985 8.58997 10.6667 8.58997H16.0001C16.3682 8.58997 16.6667 8.88844 16.6667 9.25663ZM10.0001 3.25663V1.9233H16.6667V3.25663C16.6667 3.99301 16.0698 4.58997 15.3334 4.58997H11.3334C10.597 4.58997 10.0001 3.99301 10.0001 3.25663ZM12.6667 5.9233H14.0001V7.25663H12.6667V5.9233Z" fill="black"/>
<path id="Shape_16" d="M16.6667 14.59H10C9.63185 14.59 9.33337 14.8884 9.33337 15.2566C9.33337 15.6248 9.63185 15.9233 10 15.9233H16.6667C17.0349 15.9233 17.3334 15.6248 17.3334 15.2566C17.3334 14.8884 17.0349 14.59 16.6667 14.59Z" fill="black"/>
<path id="Shape_17" d="M16.6667 25.2566H15.7114C15.3555 24.5063 14.7508 23.9023 14 23.5473V22.5899C14 22.2218 13.7016 21.9233 13.3334 21.9233C12.9652 21.9233 12.6667 22.2218 12.6667 22.5899V23.2659C12.3748 23.2778 12.0882 23.3474 11.8234 23.4706L11.138 22.7853C10.8765 22.5326 10.4607 22.5362 10.2035 22.7934C9.94634 23.0506 9.94273 23.4664 10.1954 23.7279L10.8847 24.4173C10.7603 24.6805 10.6894 24.9658 10.676 25.2566H10C9.63185 25.2566 9.33337 25.5551 9.33337 25.9233C9.33337 26.2915 9.63185 26.5899 10 26.5899H10.9627C11.136 26.9629 11.3729 27.3028 11.6627 27.5946C11.9537 27.8845 12.2936 28.1208 12.6667 28.2926V29.2566C12.6667 29.6248 12.9652 29.9233 13.3334 29.9233C13.7016 29.9233 14 29.6248 14 29.2566V28.5753C14.5249 28.568 15.0273 28.3608 15.4047 27.9959C15.7718 27.6187 15.9821 27.1162 15.9934 26.5899H16.6667C17.0349 26.5899 17.3334 26.2915 17.3334 25.9233C17.3334 25.5551 17.0349 25.2566 16.6667 25.2566ZM14.4614 27.0566C14.074 27.4426 13.208 27.2566 12.6054 26.6566C12.2972 26.3591 12.0903 25.9722 12.014 25.5506C11.9596 25.2844 12.0298 25.0079 12.2047 24.7999C12.3589 24.6577 12.5631 24.5822 12.7727 24.5899C13.2638 24.6193 13.7248 24.8365 14.06 25.1966C14.6707 25.8059 14.854 26.6566 14.4614 27.0566Z" fill="black"/>
<path id="Shape_18" d="M13.3333 18.59C9.28325 18.59 6 21.8732 6 25.9233C6 29.9734 9.28325 33.2566 13.3333 33.2566C17.3834 33.2566 20.6667 29.9734 20.6667 25.9233C20.6619 21.8752 17.3814 18.5947 13.3333 18.59ZM13.3333 19.9233C14.6939 19.9228 16.0137 20.3873 17.074 21.24L8.65 29.664C7.20778 27.8647 6.9259 25.3975 7.92512 23.3192C8.92433 21.241 11.0274 19.9205 13.3333 19.9233ZM13.3333 31.9233C11.9728 31.9238 10.6529 31.4593 9.59267 30.6066L18.0167 22.1826C19.4589 23.9819 19.7408 26.4491 18.7416 28.5274C17.7423 30.6056 15.6393 31.9261 13.3333 31.9233Z" fill="#F44335"/>
</g>
</g>
</g>
</g>
</g>
</svg>
