<svg width="40" height="41" viewBox="0 0 40 41" fill="none" xmlns="http://www.w3.org/2000/svg">
<g id="Frame">
<g id="Group">
<path id="Vector" d="M29.5561 34.0717L30.3829 34.2175C31.0289 34.3314 31.6939 34.2023 32.2499 33.855L35.4384 31.8634C36.7149 31.0663 37.5929 29.7647 37.8545 28.2828L39.1148 21.1353L32.0568 19.8908L24.999 18.646L23.7386 25.7935C23.4774 27.2757 23.8573 28.7992 24.7841 29.9848L27.0992 32.9465C27.5029 33.4632 28.0837 33.812 28.7294 33.9258L29.5561 34.0717Z" fill="#E1EBEF"/>
<path id="Vector_2" d="M28.2338 28.87C30.9721 27.6407 32.4681 23.1016 32.4681 23.1016C32.4681 23.1016 28.0013 21.4017 25.3209 22.7528C24.7927 23.0192 24.3956 23.3674 24.0984 23.7537L23.7386 25.7938C23.6119 26.5125 23.6373 27.241 23.8014 27.9358C24.5983 28.6286 26.2917 29.7419 28.2338 28.87Z" fill="#C4D3D6"/>
<path id="Vector_3" d="M36.7621 20.7203L35.6979 26.7569C35.4364 28.2389 34.5584 29.5404 33.2818 30.3376L30.0934 32.3291C29.5373 32.6764 28.8721 32.8055 28.2263 32.6917L27.3996 32.5461C27.3996 32.5461 26.8585 32.4506 26.6882 32.4207L27.0993 32.9465C27.503 33.4632 28.0841 33.8123 28.7299 33.9261L29.5566 34.0717L30.3833 34.2176C31.029 34.3314 31.694 34.2023 32.2503 33.8547L35.4388 31.8634C36.7151 31.0663 37.5934 29.7647 37.8546 28.2828L39.115 21.1353L36.7621 20.7203Z" fill="#C4D3D6"/>
<path id="Vector_4" d="M32.9094 15.0547L31.1449 14.7437L30.2922 19.5795L32.0568 19.8908L33.8213 20.2018L34.6739 15.366L32.9094 15.0547Z" fill="#E1EBEF"/>
<path id="Vector_5" d="M33.6284 15.1816L33.0638 18.3838C33.0001 18.7446 32.6558 18.9856 32.2951 18.9219L31.184 18.7262L30.4653 18.5993L30.2922 19.5795L32.0568 19.8908L33.8213 20.2018L34.6739 15.366L33.6284 15.1816Z" fill="#C4D3D6"/>
<path id="Vector_6" d="M34.6036 5.44842L32.839 5.13715L31.145 14.7437L32.9095 15.0547L34.6741 15.366L36.3681 5.7594L34.6036 5.44842Z" fill="#FFD432"/>
<path id="Vector_7" d="M32.839 5.13715L32.6663 6.11737L34.4961 6.43994C34.8571 6.50372 35.0979 6.84796 35.0344 7.20867L33.9166 13.5478C33.8528 13.9088 33.5088 14.1499 33.1478 14.0861L31.318 13.7635L31.1453 14.7437L34.674 15.366L36.368 5.7594L32.839 5.13715Z" fill="#F4AC03"/>
<path id="Vector_8" d="M39.097 4.42119L39.4082 2.65667L31.0434 1.18176L30.7321 2.94628L30.4211 4.7108L38.786 6.18572L39.097 4.42119Z" fill="#64AEF7"/>
<path id="Vector_9" d="M38.1665 2.43787L37.8784 4.07177C37.8149 4.43249 37.4707 4.67358 37.1097 4.6098L30.64 3.46905L30.4211 4.71081L38.786 6.18572L39.4082 2.65668L38.1665 2.43787Z" fill="#0A86E3"/>
<path id="Vector_10" d="M32.781 39.9981H39.4082C39.4082 38.168 37.9248 36.6846 36.0946 36.6846C35.6951 36.6846 35.3122 36.7554 34.9575 36.8851C33.9233 35.2481 32.099 34.1601 30.0195 34.1601C29.7052 34.1601 29.3969 34.1855 29.096 34.2334C28.7942 32.489 27.2745 31.1621 25.4437 31.1621C24.0979 31.1621 22.9199 31.879 22.2702 32.9513C21.7075 32.3367 20.899 31.951 20 31.951C19.101 31.951 18.2922 32.3367 17.7298 32.9513C17.0798 31.879 15.9018 31.1621 14.5563 31.1621C12.7256 31.1621 11.2058 32.489 10.9037 34.2334C10.6028 34.1858 10.2945 34.1601 9.9802 34.1601C7.90074 34.1601 6.0767 35.2481 5.04247 36.8851C4.68785 36.7554 4.30486 36.6846 3.90539 36.6846C2.07525 36.6846 0.591797 38.168 0.591797 39.9981H32.781Z" fill="#A77554"/>
<path id="Vector_11" d="M36.0946 36.6846C35.6951 36.6846 35.3122 36.7554 34.9575 36.8847C33.9233 35.2481 32.099 34.1598 30.0195 34.1598C29.7052 34.1598 29.3969 34.1855 29.096 34.2334C28.7942 32.489 27.2745 31.1621 25.4437 31.1621C24.1031 31.1621 22.9288 31.8738 22.2775 32.9401C24.0625 33.1534 25.5994 34.1724 26.5158 35.6225C26.8704 35.4932 27.2534 35.4224 27.6526 35.4224C28.8894 35.4224 29.9679 36.0998 30.5374 37.1042C30.9503 37.8326 30.4043 38.7359 29.5666 38.7359H0.84143C0.680908 39.125 0.591797 39.5511 0.591797 39.9981H39.4082C39.4082 38.168 37.9248 36.6846 36.0946 36.6846Z" fill="#915431"/>
<path id="Vector_12" d="M16.6863 24.5337C16.6863 24.5337 14.678 26.9071 12.235 25.8103C9.7564 24.6976 8.40234 20.5887 8.40234 20.5887C8.40234 20.5887 12.4456 19.0503 14.8717 20.2732C17.2631 21.4786 16.6863 24.5337 16.6863 24.5337Z" fill="#6EC030"/>
<path id="Vector_13" d="M14.8717 20.2732C14.5412 20.1066 14.1802 19.9915 13.8039 19.9167C15.3365 21.3047 14.8894 23.6786 14.8894 23.6786C14.8894 23.6786 13.3303 25.521 11.2883 25.2088C11.5828 25.4526 11.8984 25.6592 12.235 25.8103C14.6779 26.9071 16.6863 24.5337 16.6863 24.5337C16.6863 24.5337 17.263 21.4786 14.8717 20.2732Z" fill="#378900"/>
<path id="Vector_14" d="M23.3135 25.7169C23.3135 25.7169 25.3216 28.0905 27.7648 26.9937C30.2431 25.8811 31.5975 21.7722 31.5975 21.7722C31.5975 21.7722 27.5542 20.2338 25.1281 21.4567C22.7367 22.6621 23.3135 25.7169 23.3135 25.7169Z" fill="#6EC030"/>
<path id="Vector_15" d="M29.9718 21.2983C29.605 22.2663 28.319 25.2878 26.2478 26.2177C25.4479 26.5769 24.6945 26.5638 24.0432 26.384C24.8412 26.9892 26.2154 27.6893 27.7648 26.9938C30.2431 25.8811 31.5975 21.7722 31.5975 21.7722C31.5975 21.7722 30.9286 21.5177 29.9718 21.2983Z" fill="#378900"/>
<path id="Vector_16" d="M20 19.6433C20 19.6433 22.998 18.9289 22.998 16.2507C22.998 13.5782 20 10.3336 20 10.3336C20 10.3336 17.002 13.5782 17.002 16.2507C17.002 18.9286 20 19.6433 20 19.6433Z" fill="#6EC030"/>
<path id="Vector_17" d="M20.0362 10.3739C20.7735 11.511 21.4989 12.9639 21.4989 14.2783C21.4989 15.6928 20.6624 16.5595 19.8732 17.0627C19.0355 17.5965 17.957 17.5922 17.1205 17.0566C17.1132 17.052 17.1062 17.0475 17.0989 17.0429C17.6103 19.072 19.9999 19.6433 19.9999 19.6433C19.9999 19.6433 22.9979 18.9286 22.9979 16.2507C22.9979 13.7516 20.3765 10.7526 20.0362 10.3739Z" fill="#378900"/>
<path id="Vector_18" d="M14.8718 33.9627C13.7625 33.9627 12.8601 34.8651 12.8601 35.9744C12.8601 36.3013 13.125 36.5662 13.4518 36.5662C13.7784 36.5662 14.0436 36.3013 14.0436 35.9744C14.0436 35.5176 14.415 35.1462 14.8718 35.1462C15.3287 35.1462 15.7004 35.5176 15.7004 35.9744C15.7004 36.3013 15.9653 36.5662 16.2921 36.5662C16.6189 36.5662 16.8838 36.3013 16.8838 35.9744C16.8835 34.8654 15.9811 33.9627 14.8718 33.9627Z" fill="black"/>
<path id="Vector_19" d="M24.0237 35.4617C22.9144 35.4617 22.0117 36.3641 22.0117 37.4734C22.0117 37.8003 22.2766 38.0652 22.6035 38.0652C22.9303 38.0652 23.1952 37.8003 23.1952 37.4734C23.1952 37.0169 23.5669 36.6452 24.0237 36.6452C24.4806 36.6452 24.852 37.0169 24.852 37.4734C24.852 37.8003 25.1169 38.0652 25.4437 38.0652C25.7706 38.0652 26.0354 37.8003 26.0354 37.4734C26.0354 36.3641 25.1327 35.4617 24.0237 35.4617Z" fill="black"/>
<path id="Vector_20" d="M32.702 37.9468C32.702 38.2083 32.4902 38.4204 32.2287 38.4204C31.9675 38.4204 31.7554 38.2083 31.7554 37.9468C31.7554 37.6855 31.9675 37.4734 32.2287 37.4734C32.4902 37.4734 32.702 37.6855 32.702 37.9468Z" fill="black"/>
<path id="Vector_21" d="M9.66467 36.6846C9.66467 36.9461 9.45288 37.1579 9.19134 37.1579C8.92981 37.1579 8.71802 36.9461 8.71802 36.6846C8.71802 36.423 8.92981 36.2112 9.19134 36.2112C9.45288 36.2112 9.66467 36.423 9.66467 36.6846Z" fill="black"/>
<path id="Vector_22" d="M36.0946 36.0928C35.7921 36.0928 35.494 36.1273 35.2031 36.1951C34.5705 35.3311 33.7475 34.6533 32.8109 34.2023L35.7522 32.3654C37.1685 31.4807 38.1472 30.0299 38.4371 28.3853L39.6975 21.2378C39.7246 21.0834 39.6895 20.9244 39.5995 20.796C39.5095 20.6672 39.3721 20.5796 39.2174 20.5524L38.1478 20.3638C37.8264 20.3074 37.5191 20.5219 37.4624 20.8439C37.4056 21.1655 37.6204 21.4725 37.9424 21.5293L38.4295 21.615L37.2716 28.18C37.04 29.4947 36.2575 30.6543 35.1253 31.3617L31.9366 33.353C31.675 33.5166 31.3747 33.6203 31.068 33.6539C30.725 33.5977 30.375 33.5684 30.0197 33.5684C29.8629 33.5684 29.7054 33.5742 29.5479 33.5858C29.0533 31.9922 27.6778 30.8319 26.0235 30.6098L25.2505 29.6207C24.7067 28.9249 24.3765 28.1086 24.2797 27.2516C24.8666 27.5919 25.6066 27.8748 26.4455 27.8748H26.4458C26.9775 27.8748 27.5027 27.76 28.0071 27.5336C30.6927 26.3279 32.1007 22.1357 32.1596 21.9578C32.2585 21.6572 32.1038 21.3318 31.8081 21.2192C31.7193 21.1857 29.6111 20.3928 27.4602 20.3928C26.6091 20.3928 25.8605 20.5204 25.2255 20.7688L25.4791 19.3317L30.1891 20.1624H30.1897L33.7185 20.7847H33.7188L35.2633 21.0569C35.5861 21.1139 35.8922 20.8988 35.949 20.5768C36.0058 20.2552 35.7906 19.9482 35.469 19.8914L34.5067 19.7217L35.2569 15.4685L36.8477 6.4448L38.6831 6.76829C38.7181 6.77439 38.7526 6.77744 38.7865 6.77744C39.0685 6.77744 39.3181 6.57541 39.3688 6.28855L39.991 2.75951C40.0478 2.43785 39.8326 2.13085 39.511 2.07409L31.1461 0.599175C30.9911 0.57171 30.8324 0.60711 30.7039 0.697137C30.5752 0.787163 30.4876 0.924492 30.4604 1.07922L29.8385 4.60795C29.7814 4.92991 29.9966 5.23692 30.3182 5.29338L32.1535 5.61717L31.841 7.39084C31.7843 7.7125 31.9991 8.0195 32.3211 8.07626C32.6424 8.13272 32.9497 7.91818 33.0062 7.59622L33.319 5.82255L35.6826 6.23942L34.1942 14.6802L31.8307 14.2637L32.5197 10.3565C32.5765 10.0346 32.3614 9.72757 32.0397 9.67111C31.7177 9.61435 31.411 9.82919 31.3543 10.1511L30.5627 14.6409L29.8125 18.8941L25.1019 18.0634C24.7796 18.007 24.4732 18.2215 24.4164 18.5435L23.8717 21.6327C22.6666 22.8214 22.6153 24.5182 22.6748 25.3434C21.8087 25.7413 21.1111 26.301 20.592 26.8183V20.0815C21.8261 19.6384 23.59 18.4495 23.59 16.2507C23.59 13.3796 20.5636 10.0715 20.4348 9.93203C20.3228 9.81088 20.165 9.74191 20.0002 9.74191C19.8351 9.74191 19.6777 9.81088 19.5657 9.93203C19.4366 10.0715 16.4105 13.3796 16.4105 16.2507C16.4105 18.4495 18.1741 19.6384 19.4085 20.0815V25.6348C18.8891 25.1175 18.1915 24.5578 17.3257 24.1599C17.3983 23.1507 17.3059 20.8375 15.1382 19.7449C14.4332 19.3897 13.5589 19.2093 12.5399 19.2093C10.3891 19.2093 8.28092 20.0022 8.19211 20.0358C7.8964 20.1484 7.74168 20.4737 7.84055 20.7743C7.89915 20.9522 9.30753 25.1447 11.9931 26.3501C12.4975 26.5766 13.023 26.6916 13.5546 26.6916C15.0872 26.6916 16.2905 25.7468 16.8304 25.2347C18.2348 25.8811 19.1387 27.0792 19.4085 27.4726V31.4078C18.8357 31.5021 18.2922 31.731 17.825 32.0746C17.015 31.1222 15.8361 30.5704 14.5565 30.5704C12.6495 30.5704 11.0037 31.8091 10.4522 33.5861C10.2948 33.5742 10.1373 33.5684 9.98074 33.5684C7.91379 33.5684 6.00767 34.5426 4.79704 36.1954C4.50621 36.1273 4.20806 36.0932 3.90563 36.0932C1.75201 36.0928 0 37.8449 0 39.9982C0 40.325 0.264892 40.5899 0.591734 40.5899H39.4081C39.735 40.5899 39.9999 40.325 39.9999 39.9982C39.9999 37.8449 38.2479 36.0928 36.0946 36.0928ZM31.523 1.86748L38.7227 3.1367L38.3059 5.50028L36.4705 5.17649L32.9418 4.55424C32.9415 4.55424 32.9412 4.55424 32.9409 4.55424L31.1065 4.23076L31.523 1.86748ZM31.625 15.4291L33.9885 15.846L33.3413 19.5164L30.9777 19.0998L31.625 15.4291ZM12.4774 25.2704C10.7785 24.5078 9.62216 22.0612 9.17295 20.9556C9.89896 20.7334 11.2277 20.3928 12.5396 20.3928C13.3722 20.3928 14.067 20.5305 14.6054 20.8018C15.8944 21.4515 16.1441 22.7704 16.159 23.6258L13.3123 22.2651C13.0175 22.1244 12.6641 22.2489 12.5232 22.544C12.3822 22.8388 12.507 23.1922 12.8018 23.3329L15.6485 24.6936C15.1644 25.0715 14.418 25.5079 13.5543 25.5079C13.1909 25.5079 12.8286 25.4282 12.4774 25.2704ZM27.4602 21.5763C28.7682 21.5763 30.1 21.9175 30.8272 22.1393C30.3792 23.2453 29.2257 25.6891 27.5225 26.4539C27.1712 26.6114 26.809 26.6913 26.4458 26.6913H26.4455C25.5886 26.6913 24.8406 26.2537 24.3542 25.8756L27.1978 24.5163C27.4926 24.3754 27.6174 24.0223 27.4764 23.7272C27.3354 23.4324 26.9826 23.3075 26.6875 23.4485L23.8448 24.8072C23.8631 23.9509 24.1155 22.6294 25.3945 21.9849C25.9325 21.7139 26.6277 21.5763 27.4602 21.5763ZM23.0731 26.4646C23.0114 27.8672 23.4448 29.2322 24.3179 30.3491L24.5617 30.6607C23.6303 30.853 22.7944 31.3459 22.1749 32.0743C21.708 31.731 21.1642 31.5018 20.5917 31.4078V28.6557C20.8547 28.2718 21.7242 27.1204 23.0731 26.4646ZM17.5936 16.2507C17.5936 14.4291 19.2043 12.2233 20.0002 11.2449C20.7964 12.2224 22.4062 14.4251 22.4062 16.2507C22.4062 17.6816 21.3445 18.4394 20.5917 18.7968V16.4875C20.5917 16.1607 20.3268 15.8958 19.9999 15.8958C19.6731 15.8958 19.4082 16.1607 19.4082 16.4875V18.7928C18.6566 18.4321 17.5936 17.6707 17.5936 16.2507ZM1.24817 39.4064C1.51916 38.1894 2.60772 37.2763 3.90532 37.2763C4.22637 37.2763 4.5407 37.3316 4.83946 37.4408C5.1013 37.5363 5.39397 37.4365 5.54259 37.2009C6.51152 35.6674 8.17045 34.7516 9.98013 34.7516C10.2554 34.7516 10.5349 34.7739 10.8108 34.8178C11.13 34.8685 11.4315 34.6533 11.4868 34.3344C11.7456 32.8391 13.0365 31.7539 14.5562 31.7539C15.6558 31.7539 16.6531 32.316 17.2238 33.2578C17.3202 33.4174 17.4862 33.5217 17.6718 33.5401C17.857 33.5584 18.0404 33.4882 18.1661 33.3508C18.6364 32.8372 19.3048 32.5427 19.9999 32.5427C20.6951 32.5427 21.3638 32.8372 21.8337 33.3508C21.9595 33.4882 22.1429 33.5584 22.3281 33.5401C22.5137 33.5217 22.6797 33.4174 22.7761 33.2578C23.3468 32.316 24.3441 31.7539 25.4437 31.7539C26.9634 31.7539 28.2543 32.8391 28.5131 34.3344C28.5683 34.6533 28.8692 34.8685 29.1891 34.8178C29.4649 34.7739 29.7445 34.7516 30.0197 34.7516C31.8294 34.7516 33.4881 35.6674 34.4573 37.2009C34.6059 37.4365 34.8989 37.5363 35.1604 37.4408C35.4592 37.3316 35.7732 37.2763 36.0946 37.2763C37.3922 37.2763 38.4807 38.1894 38.7517 39.4064H1.24817Z" fill="black"/>
</g>
</g>
</svg>
