<svg width="40" height="41" viewBox="0 0 40 41" fill="none" xmlns="http://www.w3.org/2000/svg">
<g id="Frame">
<g id="Group">
<g id="Layer_63">
<g id="Group_2">
<g id="Group_3">
<g id="Group_4">
<path id="Vector" d="M18.512 32.9392L11.035 32.9918C10.733 32.994 10.4897 33.2406 10.4917 33.5426V39.2526H19.063V33.4824C19.0609 33.1803 18.8142 32.9371 18.512 32.9392Z" fill="#B2E26D"/>
</g>
</g>
<g id="Group_5">
<g id="Group_6">
<path id="Vector_2" d="M18.226 31.4867C18.224 31.1876 17.9798 30.9469 17.6807 30.9491L11.8387 30.9901C11.5396 30.9922 11.2989 31.2364 11.301 31.5355L11.3112 32.99L18.2364 32.9412L18.226 31.4867Z" fill="#DAE6F1"/>
</g>
</g>
<g id="Group_7">
<g id="Group_8">
<path id="Vector_3" d="M16.0009 26.8005C15.3481 25.5797 14.4214 24.5269 13.3134 23.6969L12.9403 23.4173C12.2849 22.9262 11.4961 22.6451 10.6777 22.6111C9.82735 22.5767 9.11298 22.6966 8.6986 22.1256C8.18345 21.4159 7.32704 21.0244 6.47438 21.2295C5.91751 21.3634 5.63282 21.5653 5.53548 21.8039C5.53548 21.8039 4.03782 20.5047 2.40173 18.0578C2.09282 17.5958 1.48532 17.4384 0.99032 17.6909C0.419383 17.9822 0.21782 18.6983 0.552977 19.2445L3.90876 24.7131C4.8272 26.2097 6.35235 27.2442 8.08907 27.5022C8.88626 27.6206 9.70376 27.8339 10.3559 28.2083C10.8964 28.5184 11.3355 28.9808 11.6056 29.5425C11.7961 29.9386 11.9789 30.4367 12.0614 30.9887L17.2686 30.952C17.1439 29.3303 16.5869 27.8962 16.0009 26.8005Z" fill="#F9D0B4"/>
</g>
</g>
<g id="Group_9">
<g id="Group_10">
<path id="Vector_4" d="M28.965 32.9918L21.4879 32.9392C21.1858 32.937 20.939 33.1803 20.937 33.4824V39.2526H29.5083V33.5426C29.5103 33.2406 29.267 32.994 28.965 32.9918Z" fill="#B2E26D"/>
</g>
</g>
<g id="Group_11">
<g id="Group_12">
<path id="Vector_5" d="M28.1614 30.9901L22.3194 30.949C22.0203 30.947 21.7761 31.1876 21.7741 31.4867L21.7639 32.9412L28.6891 32.99L28.6992 31.5355C28.7013 31.2364 28.4605 30.9922 28.1614 30.9901Z" fill="#DAE6F1"/>
</g>
</g>
<g id="Group_13">
<g id="Group_14">
<path id="Vector_6" d="M39.0096 17.6909C38.5145 17.4384 37.9071 17.5958 37.5982 18.0578C35.9621 20.5047 34.4645 21.8039 34.4645 21.8039C34.3671 21.5655 34.0825 21.3634 33.5256 21.2295C32.6729 21.0245 31.8165 21.4161 31.3014 22.1256C30.887 22.6966 30.1725 22.5767 29.3223 22.6111C28.504 22.6453 27.7153 22.9264 27.0596 23.4173L26.6865 23.6969C25.5785 24.5269 24.652 25.5797 23.999 26.8005C23.4131 27.8962 22.856 29.3303 22.7312 30.9519L27.9384 30.9886C28.0209 30.4367 28.2037 29.9386 28.3942 29.5423C28.6643 28.9806 29.1032 28.5184 29.6439 28.2081C30.2959 27.8337 31.1135 27.6205 31.9107 27.502C33.6476 27.2441 35.1728 26.2097 36.091 24.713L39.4468 19.2444C39.7821 18.6983 39.5806 17.9822 39.0096 17.6909Z" fill="#F9D0B4"/>
</g>
</g>
<g id="Group_15">
<g id="Group_16">
<path id="Vector_7" d="M20.3566 11.7528C18.3985 8.36136 14.9968 6.32557 11.3758 5.96807C10.9918 5.93011 10.6262 6.1412 10.4669 6.49276C8.966 9.80745 9.02819 13.7714 10.9863 17.1628C12.0643 19.0298 13.5798 20.4859 15.3283 21.4774C18.2619 23.1407 21.896 21.0426 21.9224 17.6704C21.9379 15.6604 21.4346 13.62 20.3566 11.7528Z" fill="#B2E26D"/>
</g>
</g>
<g id="Group_17">
<g id="Group_18">
<path id="Vector_8" d="M29.5331 6.49276C29.3739 6.1412 29.0083 5.93011 28.6242 5.96807C25.2136 6.30479 21.9984 8.13167 20 11.1768C20.1233 11.3646 20.2428 11.5559 20.3566 11.7529C21.4345 13.62 21.9378 15.6604 21.9222 17.6706C21.91 19.2284 21.1272 20.5131 20 21.2818C21.313 22.1773 23.0934 22.3724 24.6719 21.4776C26.4206 20.486 27.9359 19.03 29.0139 17.1629C30.972 13.7714 31.0341 9.80745 29.5331 6.49276Z" fill="#87D147"/>
</g>
</g>
<g id="Group_19">
<g id="Group_20">
<path id="Vector_9" d="M17.292 0.589966C16.9986 0.589966 16.7607 0.827778 16.7607 1.12122C16.7607 1.41465 16.9986 1.65247 17.292 1.65247C17.5854 1.65247 17.8232 1.41465 17.8232 1.12122C17.8232 0.827778 17.5854 0.589966 17.292 0.589966Z" fill="#FC657E"/>
</g>
</g>
<g id="Group_21">
<g id="Group_22">
<path id="Vector_10" d="M23.0393 4.21497C22.3362 4.08997 21.7893 3.54309 21.6487 2.85559C21.6487 2.82434 21.5862 2.82434 21.5862 2.85559C21.4456 3.54309 20.8987 4.08997 20.1956 4.21497C20.1643 4.21497 20.1643 4.26184 20.1956 4.27747C20.8987 4.40247 21.4456 4.94934 21.5862 5.63684C21.5862 5.66809 21.6487 5.66809 21.6487 5.63684C21.7893 4.94934 22.3362 4.40247 23.0393 4.27747C23.0706 4.26184 23.0706 4.21497 23.0393 4.21497Z" fill="#F5C84C"/>
</g>
</g>
<g id="Group_23">
<g id="Group_24">
<path id="Vector_11" d="M6.15142 34.9806H5.77642V34.6212C5.77642 34.34 5.55767 34.1212 5.27642 34.1212C5.0108 34.1212 4.77642 34.34 4.77642 34.6056V34.9806H4.41705C4.1358 34.9806 3.91705 35.1993 3.91705 35.4806C3.90142 35.7462 4.12017 35.9806 4.41705 35.9806H4.77642V36.34C4.77642 36.6212 4.99517 36.84 5.27642 36.84C5.54205 36.84 5.77642 36.6212 5.77642 36.3556V35.9806H6.1358C6.41705 35.9806 6.6358 35.7618 6.6358 35.4806C6.6358 35.215 6.41705 34.9806 6.15142 34.9806Z" fill="#87D147"/>
</g>
</g>
<g id="Group_25">
<g id="Group_26">
<path id="Vector_12" d="M7.60461 39.5275C7.31118 39.5275 7.07336 39.7653 7.07336 40.0587C7.07336 40.3522 7.31118 40.59 7.60461 40.59C7.89805 40.59 8.13586 40.3522 8.13586 40.0587C8.13586 39.7653 7.89805 39.5275 7.60461 39.5275Z" fill="#F5C84C"/>
</g>
</g>
<g id="Group_27">
<g id="Group_28">
<path id="Vector_13" d="M34.2893 30.9337C33.8049 30.84 33.4143 30.465 33.3206 29.9806C33.3206 29.965 33.2737 29.965 33.2737 29.9806C33.1799 30.465 32.7893 30.84 32.3049 30.9337C32.2893 30.9337 32.2893 30.965 32.3049 30.9806C32.7893 31.0743 33.1799 31.4493 33.2737 31.9337C33.2737 31.9493 33.3206 31.9493 33.3206 31.9337C33.4143 31.4493 33.8049 31.0743 34.2893 30.9806C34.3049 30.965 34.3049 30.9337 34.2893 30.9337Z" fill="#87D147"/>
</g>
</g>
<g id="Group_29">
<g id="Group_30">
<path id="Vector_14" d="M8.14038 24.0678C6.70006 23.2401 5.76835 22.2676 5.89741 21.9514C5.97881 21.7517 5.88303 21.5237 5.68319 21.4422C5.4835 21.3601 5.25538 21.4565 5.17397 21.6562C4.68022 22.8664 7.02194 24.3265 7.75131 24.7453C7.81272 24.7806 7.87944 24.7972 7.94538 24.7972C8.08069 24.7972 8.21225 24.7269 8.28444 24.6011C8.39194 24.414 8.32725 24.1751 8.14038 24.0678Z" fill="black"/>
</g>
</g>
<g id="Group_31">
<g id="Group_32">
<path id="Vector_15" d="M19.1743 32.8187C18.9976 32.6444 18.7642 32.5486 18.5162 32.5486H18.5095L11.0324 32.6012C10.5154 32.6048 10.0977 33.0284 10.1013 33.5426V39.2526C10.1013 39.4684 10.2762 39.6433 10.492 39.6433C10.7077 39.6433 10.8826 39.4684 10.8826 39.2526V33.54C10.882 33.4536 10.9517 33.383 11.0381 33.3823L18.5151 33.3297C18.5657 33.3303 18.6088 33.3578 18.626 33.3747C18.6432 33.3917 18.6723 33.4287 18.6726 33.4823V39.2525C18.6726 39.4683 18.8474 39.6431 19.0632 39.6431C19.279 39.6431 19.4538 39.4683 19.4538 39.2525V33.4798C19.452 33.2295 19.3527 32.9945 19.1743 32.8187Z" fill="black"/>
</g>
</g>
<g id="Group_33">
<g id="Group_34">
<path id="Vector_16" d="M18.6166 31.484C18.6149 31.2349 18.5163 31.0017 18.3389 30.8268C18.1616 30.6521 17.9297 30.5564 17.6778 30.5584L11.8356 30.5995C11.3217 30.6031 10.9066 31.0243 10.9102 31.5382L10.9192 32.8195C10.9208 33.0343 11.0953 33.2073 11.3099 33.2073H11.3125C11.5283 33.2057 11.7019 33.0296 11.7003 32.8138L11.6913 31.5326C11.6906 31.4495 11.758 31.3812 11.8411 31.3806L17.6833 31.3395H17.6844C17.7381 31.3395 17.7738 31.3667 17.7902 31.3829C17.8067 31.3992 17.8347 31.4348 17.8352 31.4893L17.8441 32.741C17.8456 32.9559 18.0202 33.1288 18.2347 33.1288H18.2375C18.4533 33.1273 18.6269 32.9512 18.6253 32.7354L18.6166 31.484Z" fill="black"/>
</g>
</g>
<g id="Group_35">
<g id="Group_36">
<path id="Vector_17" d="M16.3455 26.6162C15.6822 25.3761 14.7149 24.2584 13.5477 23.384L13.1747 23.1046C12.4529 22.5639 11.5951 22.2582 10.6938 22.2206C10.5355 22.2142 10.3819 22.2129 10.234 22.2117C9.5799 22.2067 9.22865 22.1903 9.01505 21.8959C8.38443 21.0273 7.35177 20.6164 6.38333 20.8495C6.0024 20.9412 5.70927 21.0684 5.49958 21.2343C4.99302 20.7401 3.89411 19.5861 2.72677 17.8404C2.30771 17.214 1.48521 16.9995 0.813021 17.3426C0.444115 17.5307 0.168177 17.8673 0.0559898 18.2659C-0.0561977 18.6646 0.00380227 19.0956 0.220209 19.4484L3.57599 24.917C4.56693 26.5318 6.19099 27.6148 8.03193 27.8881C8.91161 28.0189 9.62818 28.2403 10.1616 28.5465C10.6422 28.8225 11.0199 29.2253 11.2536 29.7112C11.4415 30.102 11.5744 30.4987 11.6488 30.8906C11.6843 31.0779 11.8482 31.2084 12.0321 31.2084C12.0563 31.2084 12.0808 31.2062 12.1054 31.2015C12.3172 31.1614 12.4566 30.957 12.4163 30.745C12.3294 30.2864 12.1751 29.8246 11.9577 29.3726C11.6552 28.7437 11.1685 28.2236 10.5505 27.869C9.93208 27.514 9.12333 27.2604 8.14662 27.1154C6.5349 26.8761 5.11161 25.9259 4.24177 24.5084L0.886146 19.0401C0.781615 18.8698 0.753958 18.6703 0.808021 18.4778C0.86224 18.2856 0.990052 18.1295 1.16802 18.0386C1.48786 17.8757 1.87833 17.9773 2.07724 18.2748C3.72349 20.7368 5.21693 22.0443 5.27974 22.0989C5.37474 22.1814 5.50411 22.2128 5.62646 22.1837C5.74896 22.1543 5.84974 22.0679 5.8974 21.9514C5.91661 21.9042 6.02161 21.7401 6.56583 21.6093C7.22536 21.4504 7.93849 21.7434 8.38255 22.3551C8.83786 22.9823 9.54443 22.9878 10.2276 22.9931C10.3674 22.9942 10.5126 22.9953 10.6615 23.0014C11.404 23.0323 12.1111 23.2845 12.7061 23.7301L13.0791 24.0095C14.1555 24.8157 15.0468 25.8446 15.6565 26.9846C16.3377 28.2586 16.7447 29.5523 16.8661 30.8292C16.8866 31.044 17.0783 31.1993 17.2919 31.1812C17.5068 31.1607 17.6643 30.97 17.6438 30.7553C17.5127 29.3746 17.0758 27.9821 16.3455 26.6162Z" fill="black"/>
</g>
</g>
<g id="Group_37">
<g id="Group_38">
<path id="Vector_18" d="M34.8262 21.6562C34.7448 21.4565 34.517 21.3604 34.317 21.4422C34.1173 21.5236 34.0213 21.7515 34.1029 21.9514C34.2318 22.2676 33.3001 23.2401 31.8599 24.0678C31.6729 24.1753 31.6084 24.414 31.7157 24.6011C31.7881 24.7269 31.9196 24.7972 32.0549 24.7972C32.1209 24.7972 32.1877 24.7806 32.2488 24.7453C32.9784 24.3265 35.3198 22.8664 34.8262 21.6562Z" fill="black"/>
</g>
</g>
<g id="Group_39">
<g id="Group_40">
<path id="Vector_19" d="M28.9678 32.6012L21.4908 32.5486H21.484C20.9701 32.5486 20.55 32.965 20.5464 33.4826V39.2528C20.5464 39.4686 20.7212 39.6434 20.937 39.6434C21.1528 39.6434 21.3276 39.4686 21.3276 39.2528V33.4853C21.3281 33.4289 21.357 33.3919 21.3742 33.3748C21.3915 33.358 21.4311 33.3325 21.4853 33.3298L28.9623 33.3825C29.0486 33.3831 29.1183 33.4537 29.1176 33.5426V39.2526C29.1176 39.4684 29.2925 39.6433 29.5083 39.6433C29.724 39.6433 29.8989 39.4684 29.8989 39.2526V33.5453C29.9022 33.0283 29.4845 32.605 28.9678 32.6012Z" fill="black"/>
</g>
</g>
<g id="Group_41">
<g id="Group_42">
<path id="Vector_20" d="M28.8214 30.8772C28.6466 30.6998 28.4133 30.6012 28.1642 30.5995L22.322 30.5584C21.8089 30.5556 21.387 30.97 21.3833 31.484L21.3745 32.7228C21.373 32.9386 21.5467 33.1147 21.7623 33.1162H21.7651C21.9797 33.1162 22.1542 32.9433 22.1558 32.7284L22.1645 31.4897C22.1648 31.4353 22.193 31.3997 22.2095 31.3833C22.2259 31.367 22.2616 31.3398 22.3155 31.3398H22.3166L28.1587 31.3809C28.2419 31.3815 28.3092 31.4497 28.3086 31.533L28.2995 32.8139C28.298 33.0297 28.4717 33.2058 28.6873 33.2073H28.6901C28.9047 33.2073 29.0792 33.0344 29.0808 32.8195L29.0898 31.5386C29.0917 31.2892 28.9962 31.0545 28.8214 30.8772Z" fill="black"/>
</g>
</g>
<g id="Group_43">
<g id="Group_44">
<path id="Vector_21" d="M39.9443 18.2662C39.832 17.8676 39.5562 17.5311 39.1871 17.3428C38.5154 17.0006 37.6926 17.2143 37.2735 17.8407C36.1093 19.582 35.0079 20.7389 34.5005 21.2345C34.291 21.0687 33.9979 20.9415 33.6171 20.8498C32.6485 20.6167 31.616 21.0278 30.9855 21.8962C30.7718 22.1906 30.4205 22.2068 29.7663 22.212C29.6184 22.2132 29.4646 22.2145 29.306 22.2209C28.4051 22.2586 27.5474 22.5642 26.8255 23.105L26.4524 23.3843C25.2854 24.2587 24.3179 25.3762 23.6548 26.6165C22.9254 27.9804 22.4887 29.3711 22.3568 30.7496C22.3362 30.9645 22.4937 31.1553 22.7084 31.1757C22.922 31.1961 23.114 31.0389 23.1345 30.8242C23.2565 29.5489 23.6634 28.2571 24.3435 26.985C24.9534 25.8448 25.8445 24.8161 26.9209 24.0098L27.294 23.7304C27.8891 23.2846 28.596 23.0326 29.338 23.0017C29.4876 22.9956 29.6327 22.9945 29.7724 22.9934C30.4557 22.9881 31.1623 22.9826 31.6177 22.3554C32.062 21.7436 32.7752 21.4509 33.4343 21.6096C33.9785 21.7406 34.0837 21.9046 34.1029 21.9517C34.1505 22.0684 34.2513 22.1548 34.3738 22.184C34.4957 22.2134 34.6252 22.1817 34.7205 22.0992C34.7832 22.0446 36.2766 20.7371 37.9229 18.2751C38.1218 17.9776 38.5123 17.8759 38.8321 18.0389C39.0101 18.1298 39.1379 18.2857 39.1921 18.4781C39.2463 18.6704 39.2185 18.8701 39.114 19.0404L35.758 24.509C34.8884 25.9264 33.4651 26.8765 31.8534 27.1161C30.8768 27.2611 30.0679 27.5146 29.4495 27.8696C28.8313 28.2245 28.3448 28.7445 28.0423 29.3732C27.8155 29.8445 27.6576 30.3257 27.5729 30.8034C27.5352 31.0157 27.677 31.2186 27.8893 31.2562C27.9123 31.2601 27.9354 31.2621 27.9579 31.2621C28.1437 31.2621 28.3085 31.129 28.3421 30.9398C28.4143 30.5321 28.5502 30.119 28.7462 29.7118C28.9799 29.2259 29.3576 28.8231 29.838 28.5471C30.3716 28.2409 31.0882 28.0195 31.9679 27.8887C33.8088 27.6154 35.4329 26.5325 36.4238 24.9176L39.7798 19.449C39.9965 19.0959 40.0563 18.665 39.9443 18.2662Z" fill="black"/>
</g>
</g>
<g id="Group_45">
<g id="Group_46">
<g id="Group_47">
<path id="Vector_22" d="M20.6949 11.5575C18.7544 8.1964 15.2849 5.96156 11.4141 5.57937C10.8625 5.52671 10.3393 5.82765 10.1111 6.33171C8.50661 9.87515 8.70739 13.9972 10.648 17.3581C11.7232 19.2203 13.275 20.7623 15.1358 21.8173C15.8805 22.2395 16.6955 22.4506 17.5102 22.4506C18.3357 22.4506 19.1607 22.2337 19.911 21.8006C21.4016 20.94 22.2996 19.3972 22.313 17.6736C22.3296 15.5347 21.7701 13.4198 20.6949 11.5575ZM19.5202 21.1241C18.2719 21.8448 16.7769 21.85 15.521 21.1378C13.7813 20.1514 12.3302 18.7094 11.3246 16.9677C9.50942 13.8241 9.32192 9.96843 10.8227 6.65406C10.906 6.47031 11.0885 6.35437 11.2871 6.35437C11.3036 6.35437 11.3205 6.35531 11.3374 6.35703C14.9582 6.71437 18.2033 8.80468 20.0183 11.9483C21.024 13.69 21.5472 15.668 21.5316 17.6677C21.5202 19.1112 20.7685 20.4034 19.5202 21.1241Z" fill="black"/>
</g>
</g>
</g>
<g id="Group_48">
<g id="Group_49">
<path id="Vector_23" d="M20.0014 21.1765L13.7419 10.3345C13.6341 10.1478 13.395 10.0836 13.2083 10.1915C13.0214 10.2993 12.9575 10.5384 13.0653 10.7251L19.325 21.5671C19.3974 21.6925 19.5286 21.7625 19.6636 21.7625C19.7299 21.7625 19.797 21.7457 19.8586 21.7101C20.0453 21.6023 20.1094 21.3632 20.0014 21.1765Z" fill="black"/>
</g>
</g>
<g id="Group_50">
<g id="Group_51">
<path id="Vector_24" d="M19.0298 14.7078C18.8213 14.6525 18.6071 14.7758 18.5513 14.984L17.7348 18.0317L14.6873 17.215C14.479 17.1597 14.2646 17.283 14.2088 17.4912C14.153 17.6997 14.2768 17.9139 14.4851 17.9698L17.9099 18.8875C17.9438 18.8965 17.9777 18.9009 18.0112 18.9009C18.1837 18.9009 18.3415 18.7858 18.3883 18.6112L19.306 15.1864C19.3618 14.978 19.2382 14.7637 19.0298 14.7078Z" fill="black"/>
</g>
</g>
<g id="Group_52">
<g id="Group_53">
<path id="Vector_25" d="M17.2757 12.1828C17.0673 12.1275 16.8531 12.2507 16.7973 12.459L16.0746 15.1562L13.3774 14.4336C13.1688 14.3781 12.9548 14.5015 12.899 14.71C12.8432 14.9182 12.967 15.1325 13.1752 15.1884L16.2498 16.012C16.2837 16.0211 16.3177 16.0254 16.351 16.0254C16.5235 16.0254 16.6813 15.9103 16.7282 15.7357L17.552 12.6614C17.6077 12.4529 17.484 12.2387 17.2757 12.1828Z" fill="black"/>
</g>
</g>
<g id="Group_54">
<g id="Group_55">
<path id="Vector_26" d="M15.3917 10.3236C15.1831 10.2681 14.9691 10.3915 14.9133 10.5998L14.4477 12.3384L12.7092 11.8725C12.5008 11.8172 12.2867 11.9404 12.2308 12.1487C12.175 12.3572 12.2986 12.5714 12.507 12.6273L14.6228 13.1944C14.6561 13.2033 14.69 13.2076 14.7239 13.2076C14.7919 13.2076 14.8594 13.19 14.9192 13.1553C15.0089 13.1036 15.0744 13.0181 15.1013 12.9181L15.6681 10.8023C15.7238 10.5936 15.6002 10.3794 15.3917 10.3236Z" fill="black"/>
</g>
</g>
<g id="Group_56">
<g id="Group_57">
<path id="Vector_27" d="M26.7919 10.1915C26.6056 10.0839 26.3661 10.1476 26.2583 10.3345L21.4833 18.6048C21.3754 18.7915 21.4395 19.0306 21.6262 19.1384C21.6878 19.174 21.7548 19.1908 21.8212 19.1908C21.9561 19.1908 22.0875 19.1208 22.1598 18.9954L26.9348 10.7251C27.0426 10.5384 26.9786 10.2995 26.7919 10.1915Z" fill="black"/>
</g>
</g>
<g id="Group_58">
<g id="Group_59">
<path id="Vector_28" d="M25.7912 17.4912C25.7353 17.2829 25.5206 17.16 25.3126 17.215L21.8878 18.1326C21.6795 18.1884 21.5557 18.4028 21.6115 18.6112C21.6584 18.7856 21.8162 18.9009 21.9886 18.9009C22.0221 18.9009 22.0562 18.8965 22.09 18.8875L25.5148 17.9698C25.7234 17.9139 25.8471 17.6996 25.7912 17.4912Z" fill="black"/>
</g>
</g>
<g id="Group_60">
<g id="Group_61">
<path id="Vector_29" d="M27.1012 14.7098C27.0453 14.5012 26.8298 14.3785 26.6228 14.4334L23.9254 15.156L23.2028 12.4588C23.1469 12.2506 22.9322 12.1274 22.7242 12.1826C22.5159 12.2384 22.3922 12.4528 22.4479 12.6612L23.2717 15.7356C23.3186 15.9099 23.4764 16.0253 23.6487 16.0253C23.6823 16.0253 23.7164 16.0209 23.75 16.0118L26.8245 15.1882C27.0334 15.1323 27.1572 14.9181 27.1012 14.7098Z" fill="black"/>
</g>
</g>
<g id="Group_62">
<g id="Group_63">
<path id="Vector_30" d="M27.7695 12.1486C27.7135 11.9403 27.4989 11.8173 27.2909 11.8723L25.5525 12.3383L25.0868 10.5997C25.0309 10.3914 24.8162 10.2686 24.6082 10.3234C24.4 10.3792 24.2762 10.5936 24.332 10.802L24.8989 12.9178C24.9257 13.0178 24.9912 13.1033 25.0809 13.155C25.1409 13.1897 25.2082 13.2073 25.2762 13.2073C25.3101 13.2073 25.3442 13.203 25.3773 13.194L27.4931 12.627C27.7015 12.5712 27.8253 12.357 27.7695 12.1486Z" fill="black"/>
</g>
</g>
<g id="Group_64">
<g id="Group_65">
<path id="Vector_31" d="M29.8891 6.33154C29.6605 5.82701 29.1371 5.52622 28.5858 5.57935C24.984 5.93513 21.764 7.85466 19.7512 10.8454C19.6307 11.0245 19.6782 11.2672 19.8573 11.3876C20.0363 11.5081 20.279 11.4606 20.3993 11.2815C22.2815 8.48466 25.2933 6.68951 28.6627 6.35685C28.8799 6.33544 29.0871 6.45466 29.1774 6.65388C30.678 9.96841 30.4905 13.824 28.6755 16.9675C27.6699 18.709 26.2188 20.1512 24.4791 21.1376C23.1673 21.8815 21.6221 21.8454 20.3455 21.0412C20.1627 20.9262 19.9218 20.9811 19.8068 21.1634C19.6918 21.3461 19.7465 21.5872 19.9291 21.7022C20.7238 22.2028 21.6055 22.454 22.4898 22.454C23.3012 22.454 24.1149 22.2423 24.8646 21.8173C26.7254 20.7622 28.2773 19.2203 29.3523 17.3581C31.2927 13.9972 31.4937 9.87513 29.8891 6.33154Z" fill="black"/>
</g>
</g>
</g>
</g>
</g>
</g>
</svg>
