<svg width="40" height="41" viewBox="0 0 40 41" fill="none" xmlns="http://www.w3.org/2000/svg">
<g id="Layer_1">
<path id="Vector" d="M18.8828 38.6368L9.47656 29.2306L7.82031 34.1993L12.2578 38.6368C14.0781 40.465 17.0469 40.465 18.8828 38.6368Z" fill="#A6F7AD"/>
<path id="Vector_2" d="M18.8828 38.6368C20.7109 36.8087 20.7109 33.84 18.8828 32.004L14.4453 27.5665L7.8125 30.879L13.9062 36.9728C15.7422 38.8087 17.9687 39.5509 18.8828 38.6368Z" fill="#69C65C"/>
<path id="Vector_3" d="M9.47656 32.5431L3.38281 23.1368C1.55469 24.965 1.55469 27.9337 3.38281 29.7697L7.82031 34.2072L9.47656 32.5431Z" fill="#B9F9BE"/>
<path id="Vector_4" d="M10.0155 23.1368C8.18742 21.3087 5.21867 21.3087 3.38273 23.1368C2.46867 24.0509 3.21085 26.2775 5.03898 28.1056L9.47648 32.5431L14.4452 27.5743L10.0155 23.1368Z" fill="white"/>
<path id="Vector_5" d="M18.8828 2.54309L9.47656 11.9493L14.4453 13.6056L18.8828 9.16809C20.7109 7.34778 20.7109 4.37903 18.8828 2.54309Z" fill="#FF3A33"/>
<path id="Vector_6" d="M18.8828 2.54309C17.0547 0.714966 14.0859 0.714966 12.25 2.54309L7.8125 6.98059L11.125 13.6134L17.2187 7.51965C19.0547 5.69153 19.7969 3.46497 18.8828 2.54309Z" fill="#FF534D"/>
<path id="Vector_7" d="M12.7891 11.9493L3.38281 18.0431C5.21094 19.8712 8.17969 19.8712 10.0156 18.0431L14.4531 13.6056L12.7891 11.9493Z" fill="#C2EFCB"/>
<path id="Vector_8" d="M3.38281 11.4181C1.55469 13.2462 1.55469 16.215 3.38281 18.0509C4.29687 18.965 6.52344 18.2228 8.35156 16.3947L12.7891 11.9572L7.82031 6.9884L3.38281 11.4181Z" fill="white"/>
<path id="Vector_9" d="M29.125 11.7228V29.4572C34.0234 29.4572 37.9922 25.4884 37.9922 20.59C37.9922 15.6915 34.0234 11.7228 29.125 11.7228Z" fill="#A3E59E"/>
<path id="Vector_10" d="M35.6484 20.59C35.6484 15.6915 32.7266 11.7228 29.125 11.7228C24.6406 11.7228 20.9297 15.0509 20.3359 19.379L17.9062 20.59L20.3359 21.8009C20.9297 26.1212 24.6328 29.4572 29.125 29.4572C32.7266 29.4572 35.6484 25.4884 35.6484 20.59Z" fill="white"/>
<path id="Vector_11" d="M10.4219 22.7228C8.36719 20.6681 5.02344 20.6681 2.96094 22.7228C0.898439 24.7775 0.906251 28.1212 2.96094 30.1837L5.73438 32.9572C5.96094 33.1837 6.33594 33.1837 6.5625 32.9572C6.78906 32.7306 6.78906 32.3556 6.5625 32.129L3.78906 29.3556C2.1875 27.754 2.1875 25.1525 3.78906 23.5509C5.39063 21.9493 7.99219 21.9493 9.59375 23.5509L13.6172 27.5743L7.39844 33.7931C7.17188 34.0197 7.17188 34.3947 7.39844 34.6212L11.8359 39.0587C13.8906 41.1134 17.2344 41.1134 19.2969 39.0587C21.3594 37.004 21.3516 33.6603 19.2969 31.5978L10.4219 22.7228ZM18.4688 38.2228C16.8672 39.8243 14.2656 39.8243 12.6641 38.2228L8.64063 34.1993L14.4453 28.3947L18.4688 32.4181C20.0625 34.0197 20.0625 36.6212 18.4688 38.2228Z" fill="#002200"/>
<path id="Vector_12" d="M10.4219 18.4572L19.2969 9.58997C21.3516 7.53528 21.3516 4.19153 19.2969 2.12903C17.2422 0.0665298 13.8984 0.0743423 11.8359 2.12903L2.96875 11.004C0.914062 13.0587 0.914062 16.4025 2.96875 18.465C5.02344 20.5275 8.36719 20.5118 10.4219 18.4572ZM12.6641 2.95715C14.2656 1.35559 16.8672 1.35559 18.4688 2.95715C20.0703 4.55872 20.0703 7.16028 18.4688 8.76184L14.4453 12.7853L8.64062 6.98059L12.6641 2.95715ZM3.79687 11.8322L7.8125 7.80872L13.6172 13.6134L9.59375 17.6368C7.99219 19.2384 5.39062 19.2384 3.78906 17.6368C2.19531 16.0275 2.19531 13.4259 3.79687 11.8322Z" fill="#002200"/>
<path id="Vector_13" d="M29.1172 11.1368C26.8203 11.1368 24.6016 11.9728 22.875 13.4884C21.2422 14.9181 20.1562 16.8634 19.7969 18.9884L17.6406 20.0665C17.4453 20.1681 17.3203 20.3712 17.3203 20.59C17.3203 20.8087 17.4453 21.0118 17.6406 21.1134L19.7969 22.1915C20.1562 24.3165 21.2422 26.2618 22.875 27.6915C24.6016 29.2072 26.8125 30.0431 29.1172 30.0431C34.3281 30.0431 38.5703 25.8009 38.5703 20.59C38.5703 15.379 34.3359 11.1368 29.1172 11.1368ZM29.1172 28.8712C25 28.8712 21.4688 25.8009 20.9141 21.7228C20.8906 21.5275 20.7656 21.3634 20.5938 21.2775L19.2188 20.59L20.5938 19.9025C20.7656 19.8165 20.8828 19.6525 20.9141 19.4572C21.4688 15.379 25 12.3087 29.1172 12.3087C33.6875 12.3087 37.3984 16.0275 37.3984 20.59C37.3984 25.1525 33.6875 28.8712 29.1172 28.8712Z" fill="#002200"/>
<path id="Vector_14" d="M32.0547 17.6603C30.4375 17.6603 29.125 18.9728 29.125 20.59C29.125 22.2072 30.4375 23.5197 32.0547 23.5197C33.6719 23.5197 34.9844 22.2072 34.9844 20.59C34.9844 18.9728 33.6641 17.6603 32.0547 17.6603ZM32.0547 22.3478C31.0859 22.3478 30.2969 21.5587 30.2969 20.59C30.2969 19.6212 31.0859 18.8322 32.0547 18.8322C33.0234 18.8322 33.8125 19.6212 33.8125 20.59C33.8125 21.5587 33.0234 22.3478 32.0547 22.3478Z" fill="#002200"/>
<path id="Vector_15" d="M27.3594 17.6603C27.0391 17.6603 26.7734 17.9259 26.7734 18.2462V21.1759L24.3125 17.8947C24.1641 17.6915 23.8984 17.6134 23.6562 17.6915C23.4141 17.7697 23.2578 17.9962 23.2578 18.2462V22.9337C23.2578 23.254 23.5234 23.5197 23.8438 23.5197C24.1641 23.5197 24.4297 23.254 24.4297 22.9337V20.004L26.8906 23.2853C27 23.4337 27.1797 23.5197 27.3594 23.5197C27.4219 23.5197 27.4844 23.5118 27.5469 23.4884C27.7891 23.4103 27.9453 23.1837 27.9453 22.9337V18.2462C27.9453 17.9259 27.6875 17.6603 27.3594 17.6603Z" fill="#002200"/>
</g>
</svg>
