<svg xmlns="http://www.w3.org/2000/svg" viewBox="0 0 403.04 118.22"><defs><style>.cls-1{isolation:isolate;}.cls-18,.cls-2{fill:#455218;}.cls-3{fill:#99c12a;}.cls-4{fill:#7c943a;}.cls-5{fill:#e36b00;}.cls-6{fill:#d15e00;}.cls-7{fill:#c74600;}.cls-8{fill:#7e9e2c;}.cls-9{fill:#b3c948;}.cls-10{fill:#e74641;}.cls-11{fill:#e7807d;}.cls-12{fill:#c9bdbd;}.cls-12,.cls-17{mix-blend-mode:multiply;}.cls-13{fill:#ecc54a;}.cls-14{fill:#683c1d;}.cls-15{fill:#814c2e;}.cls-16{fill:#fff;opacity:0.59;}.cls-17{fill:#d9cccc;}.cls-18{font-size:40.38px;font-family: cursive;font-weight:600;}.cls-19{font-size:20.19px;fill:#48402e;font-family: "Segoe UI", Tahoma, Geneva, Verdana, sans-serif;;font-weight:200;letter-spacing:0.2em;}.cls-20{letter-spacing:0.2em;}.cls-21{letter-spacing:0.18em;}.cls-22{letter-spacing:0.19em;}.cls-23{letter-spacing:0.2em;}.cls-24{letter-spacing:0.21em;}.cls-25{letter-spacing:0.2em;}</style></defs><g class="cls-1"><g id="Layer_2" data-name="Layer 2"><g id="TEXTS"><path class="cls-2" d="M103.5,10.91c1.72.55,8.55,4.46,10.09,5-1.56,3.5-2.22,6.27-5.35,10.49a35.18,35.18,0,0,0,7.55-9.74l3.74,1.25c-4.91,6.92-13,16.12-14.29,16.12h-.07a2.79,2.79,0,0,1-1.4-2,2.32,2.32,0,0,1-1.06.23,3.65,3.65,0,0,1-3-1.48c-.19-.42,4.34-13.18,3.77-19.88m0-2.72a2.72,2.72,0,0,0-2.71,3c.38,4.45-1.92,12.5-3,16.37-.82,2.87-1,3.39-.5,4.41a6.1,6.1,0,0,0,4.93,3,4.58,4.58,0,0,0,1.92,1.53,2.93,2.93,0,0,0,1.13.23h0c1.31,0,2.41-.81,4-2.3,1.05-1,2.38-2.41,3.86-4.08a138.08,138.08,0,0,0,8.68-10.88,2.72,2.72,0,0,0-1.36-4.16l-1.23-.41-2.5-.84a2.88,2.88,0,0,0-.87-.14,1.51,1.51,0,0,0-.3,0,2.77,2.77,0,0,0-1-.63c-.54-.18-2.8-1.36-4.29-2.15a51.88,51.88,0,0,0-5.85-2.84,2.62,2.62,0,0,0-.83-.13Z"/><path class="cls-3" d="M115.79,16.64a35.18,35.18,0,0,1-7.55,9.74c3.13-4.22,3.79-7,5.35-10.49-1.54-.52-8.37-4.43-10.09-5,.57,6.7-4,19.46-3.77,19.88a3.57,3.57,0,0,0,4,1.25,2.79,2.79,0,0,0,1.4,2c1,.42,9.34-9,14.36-16.11Z"/><path class="cls-4" d="M115.79,16.64a35.18,35.18,0,0,1-7.55,9.74c3.13-4.22,3.79-7,5.35-10.49-.29-.1-.77-.32-1.37-.61l-.34.45c-.75,3.22-1.38,6.26-5.17,7.88a10.66,10.66,0,0,1-5.25.75c-.94,3.53-1.82,6.24-1.73,6.43a3.57,3.57,0,0,0,4,1.25,2.79,2.79,0,0,0,1.4,2c1,.42,9.34-9,14.36-16.11Z"/><path class="cls-5" d="M97.31,58.73a61.4,61.4,0,0,1-5.08,7.51c-1.76,2.49-3.54,5.6-5.65,8.12A124.59,124.59,0,0,1,75.41,86.24c-1.15,1.05-6.7,5.05-7,.29-.1-1.77.91-3.47,1.55-4.87,1.07-2.34,2.33-4.66,3.37-7.17s1.84-5.12,2.82-7.67c1-2.73,2.54-5.21,3.67-7.76C81.93,54.32,84,49.94,85.76,45c.89-2.46,2.55-4.42,3.65-6.89,1-2.19,1.21-4.8,2.76-6.68,2.81-3.4,9.07-4.05,12.91-2,2.7,1.45,3.94,4.22,4.29,7.18s-1.06,4.68-2.67,6.86c-2,2.67-3.09,6.12-4.84,8.91C100.33,54.83,98.42,56.54,97.31,58.73Z"/><path class="cls-2" d="M100,28.27a10.87,10.87,0,0,1,5.08,1.17c2.71,1.45,4,4.23,4.3,7.17s-1.06,4.69-2.67,6.87c-2,2.67-3.09,6.12-4.84,8.91-1.53,2.44-3.45,4.16-4.55,6.34a62.25,62.25,0,0,1-5.08,7.52q-.39.56-.78,1.14l-1,1.56a54.37,54.37,0,0,1-3.83,5.41c-2,2.4-4,4.66-6,6.73l-.7.72q-2.27,2.4-4.51,4.43c-.74.67-3.3,2.57-5.11,2.57-1,0-1.77-.58-1.86-2.29s.9-3.46,1.55-4.86c1.07-2.34,2.33-4.66,3.37-7.17.27-.64.52-1.29.76-1.95l.18-.48c.63-1.74,1.21-3.51,1.88-5.24,1-2.73,2.54-5.21,3.67-7.76,1-2.21,1.93-4.35,2.85-6.49.22-.47.41-.94.62-1.41.84-2,1.66-4,2.44-6.16.89-2.47,2.55-4.42,3.65-6.9,1-2.18,1.21-4.79,2.76-6.67,1.74-2.11,4.82-3.16,7.82-3.16m0-2.72v0h0c-4.07,0-7.78,1.55-9.92,4.15a14.18,14.18,0,0,0-2.4,5.13A17.51,17.51,0,0,1,86.93,37a26.85,26.85,0,0,1-1.54,2.81,24.42,24.42,0,0,0-2.19,4.27c-.69,1.89-1.45,3.81-2.39,6l-.16.36c-.14.33-.27.66-.42,1l0,.06c-.59,1.36-1.18,2.71-1.81,4.13-.34.77-.69,1.55-1,2.34-.44,1-.94,2-1.47,3a50.68,50.68,0,0,0-2.25,4.86c-.43,1.1-.82,2.22-1.19,3.3l-.69,2c-.07.18-.14.34-.2.52-.21.58-.45,1.18-.72,1.83-.61,1.47-1.32,2.92-2,4.33-.44.9-.89,1.82-1.31,2.74-.1.21-.2.42-.31.63a11.31,11.31,0,0,0-1.49,5.53c.2,3.58,2.6,4.85,4.58,4.85,3.28,0,6.79-3.13,6.94-3.27,1.5-1.36,3.06-2.89,4.64-4.56l.45-.46.25-.26c1.93-2,3.91-4.29,6.08-6.87a58,58,0,0,0,4-5.68c.33-.51.67-1,1-1.52l0,0c.24-.37.49-.74.73-1.08.5-.71,1-1.41,1.51-2.08A40.06,40.06,0,0,0,99.74,60a18.21,18.21,0,0,1,2.05-2.9,34.61,34.61,0,0,0,2.38-3.22,41.44,41.44,0,0,0,2.19-4.16,29.22,29.22,0,0,1,2.53-4.57l.13-.17c1.64-2.24,3.51-4.78,3-8.64-.52-4.32-2.49-7.52-5.71-9.25A13.46,13.46,0,0,0,100,25.55Z"/><path class="cls-5" d="M107.38,42.55l-.68.93c-.36.5-.69,1-1,1.56-1.39,2.37-2.41,5.08-3.83,7.35-1.53,2.44-3.45,4.15-4.55,6.34-.19.39-.4.76-.61,1.13-.5.85-1,1.66-1.63,2.48-.88,1.25-1.85,2.51-2.84,3.9-.25.38-.52.76-.78,1.15l-1,1.56a54.37,54.37,0,0,1-3.83,5.41q-3,3.61-6,6.73l-.69.73c-1.51,1.59-3,3.06-4.51,4.42-1.15,1-6.7,5.05-7,.29-.1-1.77.9-3.47,1.55-4.87,1.08-2.34,2.32-4.66,3.37-7.17.26-.64.52-1.29.77-1.95.05-.16.11-.32.17-.48.63-1.74,1.21-3.51,1.88-5.24,1-2.74,2.54-5.21,3.67-7.76,1-2.21,1.93-4.35,2.85-6.49.22-.46.41-.94.62-1.41.68-1.62,1.36-3.27,2-5,.15-.39.3-.79.44-1.18a14.23,14.23,0,0,1,.82-1.82c.89-1.68,2-3.23,2.83-5.08,1-2.18,1.21-4.79,2.77-6.67,2.79-3.4,9.06-4.05,12.89-2,2.72,1.45,3.94,4.23,4.3,7.18C109.66,39.06,108.67,40.75,107.38,42.55Z"/><path class="cls-6" d="M108.93,34.46c-.11.28-.21.53-.3.73-.9,2-1.7,4-2.6,6a28.09,28.09,0,0,1-7.59,10.21c-3.32,2.64-8.28,4.15-12.34,2.39a8.87,8.87,0,0,1-3-2.14c-.12.3-.25.6-.39.89-.92,2.14-1.88,4.28-2.85,6.49-1.13,2.55-2.62,5-3.67,7.76-.67,1.73-1.25,3.5-1.88,5.24-.06.16-.12.32-.17.48-.25.66-.51,1.31-.77,1.95-1,2.51-2.29,4.83-3.37,7.17-.65,1.4-1.65,3.1-1.55,4.87.27,4.76,5.82.75,7-.29,1.49-1.36,3-2.83,4.51-4.42l.69-.73q2.94-3.12,6-6.73A54.37,54.37,0,0,0,90.41,69l1-1.56c.26-.39.53-.77.78-1.15,1-1.39,2-2.65,2.84-3.9.59-.82,1.13-1.63,1.63-2.48.21-.37.42-.74.61-1.13,1.1-2.19,3-3.9,4.55-6.34,1.42-2.27,2.44-5,3.83-7.35.32-.54.65-1.06,1-1.56l.68-.93c1.29-1.8,2.28-3.49,2-5.93A12.92,12.92,0,0,0,108.93,34.46Z"/><path class="cls-7" d="M105.69,45a9.55,9.55,0,0,1-1-.56,12.53,12.53,0,0,1-4.48-4.69A22.44,22.44,0,0,1,106.32,42c.38.2.73.4,1.06.6Z"/><path class="cls-7" d="M94,48.53a26,26,0,0,1-8.69-2.35c.15-.39.3-.79.44-1.18a14.23,14.23,0,0,1,.82-1.82l.31.12C89.41,44.28,91.33,46.19,94,48.53Z"/><path class="cls-7" d="M96.7,59.86c-.5.85-1,1.66-1.63,2.48a31.79,31.79,0,0,1-6-5.23S92,57.11,96.7,59.86Z"/><path class="cls-2" d="M75.58,67.07c-.33.94-.7,1.86-1.1,2.78,3.57,1.9,8.21,4.3,8.21,4.3A41.17,41.17,0,0,0,75.58,67.07Z"/><path class="cls-2" d="M112.74,13.34a42.29,42.29,0,0,1-4.5,13s5.34-3.23,9.18-10.93Z"/><path class="cls-2" d="M33.18,64.31a18.7,18.7,0,0,0,.35,3.22c.26,1.54.29,5,2.63,7,1.43,1.23,4.69,3.56,7,5.2a34.22,34.22,0,0,1-5.65,7.73,45.2,45.2,0,0,0-6.11-4.66,13.08,13.08,0,0,0-6.52-1.84c-.29,0-.58,0-.85,0a66.36,66.36,0,0,0-6.85,1.27L18,79.38a60.79,60.79,0,0,1,7.24-.87h.38c1.93,0-5.84-5-5.84-5l1.16-3s4.43,3.92,5.62,3.92a.29.29,0,0,0,.21-.08c.7-.68-2.66-4.13-2.66-4.13l2.22-2.77S28.5,71.59,30.51,72a1.58,1.58,0,0,0,.41,0c1.45,0,.62-2.28.12-4.18a19.13,19.13,0,0,0-1.18-3.3l3.32-.28m0-2.73H33l-3.32.28a2.76,2.76,0,0,0-2.15,1.39,2.81,2.81,0,0,0-.34,1.5,2.1,2.1,0,0,0-.51-.1l-.28,0a2.71,2.71,0,0,0-2.12,1l-1.93,2.4A2.75,2.75,0,0,0,21,67.7a3,3,0,0,0-.65.08,2.73,2.73,0,0,0-1.89,1.68l-1.15,3a2.71,2.71,0,0,0,1.06,3.25l1,.66-1.77.29a2.71,2.71,0,0,0-2.14,1.94l-.81,2.86a2.73,2.73,0,0,0,3.25,3.39,63.19,63.19,0,0,1,6.4-1.21l.67,0a10.49,10.49,0,0,1,5.2,1.5,37.89,37.89,0,0,1,5.66,4.34,2.7,2.7,0,0,0,1.77.66,2.73,2.73,0,0,0,2-.82A36.88,36.88,0,0,0,45.59,81a2.73,2.73,0,0,0-.84-3.51c-3.36-2.35-5.77-4.14-6.8-5-1.19-1-1.43-3-1.61-4.41,0-.34-.08-.66-.13-1a18.72,18.72,0,0,1-.31-2.71,2.68,2.68,0,0,0-2.7-2.79Zm0,5.45Z"/><path class="cls-8" d="M31.43,82.78a45.2,45.2,0,0,1,6.11,4.66,34.22,34.22,0,0,0,5.65-7.73c-2.34-1.64-5.6-4-7-5.2-2.34-2-2.37-5.44-2.63-7a18.7,18.7,0,0,1-.35-3.22l-3.32.28A19.13,19.13,0,0,1,31,67.89c.55,2.06,1.47,4.57-.53,4.13s-4.16-4.66-4.16-4.66l-2.22,2.77s3.36,3.45,2.66,4.13S21,70.42,21,70.42l-1.16,3s7.92,5.14,5.78,5a54.37,54.37,0,0,0-7.56.86l-.81,2.86A66.36,66.36,0,0,1,24.06,81,12.81,12.81,0,0,1,31.43,82.78Z"/><path class="cls-2" d="M21.28,52.55c2.8,0,5,2.42,5,2.42a3.41,3.41,0,0,1,3.12-2,4.94,4.94,0,0,1,3.26,1.37,6.53,6.53,0,0,1-4.58,11.37,6.32,6.32,0,0,1-3.26-.87,8.19,8.19,0,0,1-4,6,7.22,7.22,0,0,1-1.85.68l.06.08a5.2,5.2,0,0,1,.18,5.32C18.33,78.67,16.91,80,15,80l-.44,0a4.78,4.78,0,0,1-.79,4,6,6,0,0,1-4.11,1.41,5,5,0,0,1-1.21-.14,7.15,7.15,0,0,1-3.8-2.49,7.15,7.15,0,0,1-1.91-5.16C3,75.77,4.08,73.48,6,73.23A4.76,4.76,0,0,1,4.83,67,3.43,3.43,0,0,1,6.7,65.38a7.53,7.53,0,0,1,.09-5.32c1.12-2.59,3.56-4.74,6.35-4.74a6,6,0,0,1,3.28,1A5.53,5.53,0,0,1,19,53.11a4.83,4.83,0,0,1,2.25-.56m0-2.72h0a7.51,7.51,0,0,0-3.51.87,7.92,7.92,0,0,0-2.56,2.16,8,8,0,0,0-2.07-.27c-3.64,0-7.2,2.57-8.85,6.39a9.94,9.94,0,0,0-.66,5.16,6.13,6.13,0,0,0-1.2,1.56A8,8,0,0,0,2,72.57a9.1,9.1,0,0,0-2,4.8,9.68,9.68,0,0,0,2.5,7.17A9.83,9.83,0,0,0,7.79,88a7.4,7.4,0,0,0,1.88.22c1.89,0,4.62-.61,6.14-2.32a7.62,7.62,0,0,0,1.55-3.55,8.38,8.38,0,0,0,4.3-4.12A8.28,8.28,0,0,0,22.51,73a10.53,10.53,0,0,0,4.11-4.71,10.14,10.14,0,0,0,1.46.11,9.26,9.26,0,0,0,6.43-16.1,7.75,7.75,0,0,0-5.11-2.09,6,6,0,0,0-3.4,1,9.06,9.06,0,0,0-4.72-1.44Z"/><path class="cls-9" d="M26.28,55S22.8,51.14,19,53.11a5.53,5.53,0,0,0-2.61,3.24c-4-2.61-8.09.14-9.63,3.71a7.53,7.53,0,0,0-.09,5.32A3.43,3.43,0,0,0,4.83,67,4.76,4.76,0,0,0,6,73.23c-1.9.25-3,2.54-3.23,4.44a7.15,7.15,0,0,0,1.91,5.16,7.15,7.15,0,0,0,3.8,2.49c1.53.4,4.27-.09,5.32-1.27a4.78,4.78,0,0,0,.79-4c2.12.22,3.69-1.2,4.68-3.08a5.2,5.2,0,0,0-.18-5.32L19,71.52a7.22,7.22,0,0,0,1.85-.68,8.19,8.19,0,0,0,4-6,6.59,6.59,0,0,0,7.84-10.5C30.77,52.6,27.71,52.21,26.28,55Z"/><path class="cls-4" d="M12.92,71.1c1.11,3.05.79,6.05-1,8.22s-7.81,2-9.21-1a7.61,7.61,0,0,0,1.93,4.55,7.15,7.15,0,0,0,3.8,2.49c1.53.4,4.27-.09,5.32-1.27a4.78,4.78,0,0,0,.79-4c2.12.22,3.69-1.2,4.68-3.08a5.45,5.45,0,0,0,.37-4.24A14.31,14.31,0,0,1,12.92,71.1Z"/><path class="cls-2" d="M19,71.52a10.91,10.91,0,0,1-5.81-.22s2.67,4,6.58,3.11,4.07-3.7,4.07-3.7S19.94,71.38,19,71.52Z"/><path class="cls-2" d="M16.42,56.35S19.11,58,19.9,59.49c0,0-.12-4.77-3.91-6.65Z"/><path class="cls-2" d="M3.62,81.62s-1.48-3.83.72-5.92a4.65,4.65,0,0,1,4.51-1,4.57,4.57,0,0,0-3.59-2.26,4.52,4.52,0,0,0-4.17,3.18Z"/><path class="cls-2" d="M24.82,64.84a14.69,14.69,0,0,0-.94-5.3s4.19,1.27,4,7.28Z"/><path class="cls-2" d="M6.7,65.38s1.08,2.59,2.75,3c0,0-5,1.24-6-3.08Z"/><path class="cls-10" d="M123.72,57.23c3.26,13.42.09,25.81-18.36,31.66C86.61,94.83,77.22,86.8,72.05,74.14c-.25-.63-.09-2.14.48-2.32L121.87,55.9C122.41,55.72,123.57,56.64,123.72,57.23Z"/><path class="cls-2" d="M122,55.88a2.39,2.39,0,0,1,1.7,1.35c3.26,13.42.09,25.81-18.36,31.66a38.35,38.35,0,0,1-11.53,2c-11.32,0-17.8-7-21.78-16.75-.25-.63-.09-2.14.48-2.32L121.87,55.9a.39.39,0,0,1,.15,0m0-2.72h0a3.19,3.19,0,0,0-1,.15L71.69,69.23a3.35,3.35,0,0,0-2,1.84,5.6,5.6,0,0,0-.16,4.1c2.35,5.73,5.26,10,8.91,13.08a23.23,23.23,0,0,0,15.39,5.36,41.27,41.27,0,0,0,12.35-2.13C123.6,86,130.57,73.9,126.36,56.59A5,5,0,0,0,122,53.16Z"/><path class="cls-11" d="M116.7,61.46c2.58,9.12-.58,18.17-13,22.12-12.75,4-20.28-1.42-23.51-10.32Z"/><path class="cls-10" d="M100.89,71.05c1.35,2.27,3.47,5.78,3.57,8.21s-2.57,2.71-3.33,1.1c-1.1-2.3-1.63-7.1-1.76-8.77S99.72,69.1,100.89,71.05Z"/><path class="cls-10" d="M96.18,72.92c.33,2.37.86,6.07,0,8.1a1.8,1.8,0,0,1-3.49-.37c-.08-2.31,1.36-6.45,1.91-7.86S95.9,70.87,96.18,72.92Z"/><path class="cls-10" d="M92.07,73.78c-1.06,1.59-2.7,4.08-4.35,4.75a1.62,1.62,0,0,1-2-2.32c1.18-1.41,4.31-3,5.42-3.48S93,72.4,92.07,73.78Z"/><path class="cls-10" d="M103.47,70.57c1.11,2.12,2.84,5.43,4.74,6.56a1.8,1.8,0,0,0,2.62-2.33c-1.28-1.93-4.87-4.45-6.14-5.28S102.5,68.74,103.47,70.57Z"/><path class="cls-10" d="M107.3,68.86c1.79.68,4.58,1.74,6.31,1.32a1.62,1.62,0,0,0,.28-3.06c-1.79-.45-5.24.1-6.44.34S105.75,68.28,107.3,68.86Z"/><path class="cls-12" d="M110,80.63a18.14,18.14,0,0,1-9.35-2.09c-8.61-4.76-8.35-11.47-9-12.89L72.53,71.82c-.57.18-.73,1.69-.48,2.32,5.17,12.66,14.56,20.69,33.31,14.75,11.5-3.64,17.06-9.83,18.83-17.23C121.54,76.26,116.69,80.46,110,80.63Z"/><path class="cls-2" d="M50.75,29c.24,1.72-4,2.84-5.77,2.71-1.46-.12-.79-2.46-.87-4-.09-2-2-6.61-2.9-9.32-.75-2.18,1.86-2.3,2.48-1.85,0,0,0,0,0,0,1,.77,2.07,4.65,3,7.36S50.51,27.25,50.75,29Z"/><path class="cls-2" d="M50.79,27.66a11.73,11.73,0,0,1,7.51,2.78,14.26,14.26,0,0,1,1.59,1.5A169.08,169.08,0,0,0,74.3,46.48C83.62,55.16,94.83,69.56,88.75,83c-4.81,10.58-14.15,14.87-18,15.8a26.13,26.13,0,0,1-10,1.85,29.25,29.25,0,0,1-13.89-3.49c-13-7-12.22-25.12-10.63-37.77.17-1.38.32-2.63.47-3.79,1-8.48,1.32-11.55,1.67-16.34.13-1.9,1.6-8.59,8.19-10.82a13.36,13.36,0,0,1,4.26-.74m0-2.72h0a16.18,16.18,0,0,0-5.13.88c-7.36,2.49-9.79,9.73-10,13.21-.35,4.84-.63,7.86-1.66,16.2-.1.84-.21,1.73-.33,2.68L33.5,59c-.71,5.65-1.49,14.07-.12,21.83C35,89.74,39.05,96,45.55,99.52a31.71,31.71,0,0,0,15.17,3.81,29,29,0,0,0,10.89-2c5.06-1.3,14.64-6.33,19.61-17.26,7.1-15.64-6.39-31.52-15.06-39.6a164.71,164.71,0,0,1-12.6-12.55L61.9,30.1A17.39,17.39,0,0,0,60,28.32a14.49,14.49,0,0,0-9.22-3.38Z"/><path class="cls-8" d="M88.75,83c-4.81,10.58-14.15,14.87-18,15.8a28.78,28.78,0,0,1-23.91-1.64c-13-7-12.22-25.12-10.63-37.77.17-1.38.32-2.63.47-3.79,1-8.48,1.32-11.55,1.67-16.34.13-1.9,1.6-8.59,8.19-10.82a11.8,11.8,0,0,1,11.77,2,14.26,14.26,0,0,1,1.59,1.5A169.08,169.08,0,0,0,74.3,46.48C83.62,55.16,94.83,69.56,88.75,83Z"/><path class="cls-13" d="M83.41,82.05c-3.6,8.86-10.92,12.3-14,13-2.86,1.28-10.77,3-19-1.89C40,87,40.23,71.65,41.22,61c.11-1.16.21-2.22.3-3.2.65-7.17.81-9.76,1-13.81.07-1.61,1.09-7.25,6.28-9a9.15,9.15,0,0,1,9.38,2,12.16,12.16,0,0,1,1.29,1.3A150.11,150.11,0,0,0,71.2,50.83C78.77,58.38,88,70.81,83.41,82.05Z"/><path class="cls-14" d="M73.8,67.51c2.75,7.26-.16,15.08-6.48,17.47S53.65,83.43,50.9,76.17c-3.27-8.65-1.78-20.2,4.54-22.59,2.26-.86,4.84-.43,7.36.88C67.33,56.8,71.7,62,73.8,67.51Z"/><path class="cls-15" d="M53.29,57.08c-1.86,3-2.47,10.54-.41,16.43s6.7,6.59,10.53,5.62,6.14-8.51,3.82-13.82C63.57,56.93,57.1,50.92,53.29,57.08Z"/><path class="cls-16" d="M55.35,60.2C53,62.53,53.05,69,55.16,71.52s2.57-.91,2.92-2.94c.26-1.45,1-11.75-2.62-8.48Z"/><path class="cls-17" d="M68.43,88.81c-18,3.24-31.54-11.92-33.07-16.21.18,9.85,2.65,19.77,11.47,24.52a28.78,28.78,0,0,0,23.91,1.64c3.86-.93,13.2-5.22,18-15.8a20.34,20.34,0,0,0,.8-14.3C85.32,83.18,82.69,86.25,68.43,88.81Z"/><path class="cls-2" d="M52.8,114.82h4.84c1,1.44,2.1,3.4,3.36,3.4s2-1,3.57-2.43c0,0,4.57,1.53,6.32.67l-.7-7.45L52.8,107.39Z"/><path class="cls-2" d="M92.08,85.31a48.11,48.11,0,0,1,8.48.75c17.2,3.12,20.52,6.19,20.52,6.19S105.54,104,94.42,110.64c-5.18,3.1-11.39,3.93-16.55,3.93a49.49,49.49,0,0,1-10.45-1.09C77.89,99.07,94.73,95.19,94.73,95.19c-.67,0-1.33-.07-2-.07-18,0-31.73,18.07-31.73,18.07s0-.28,0-.42c-.29-.79-7.8-16-20-17A34,34,0,0,1,55.6,111.91a19.84,19.84,0,0,1-4.32.44,16.29,16.29,0,0,1-11-3.83C34,102.88,25.66,91.91,25.66,91.91S29,88,39.79,87.32c.37,0,.75,0,1.13,0,9.64,0,20,7.25,20.29,18.9C63.1,91.48,77.9,85.31,92.08,85.31m0-2.72c-8,0-15.65,1.88-21.43,5.3a25.27,25.27,0,0,0-9.1,8.91,21.85,21.85,0,0,0-5.21-6.5,24.15,24.15,0,0,0-15.42-5.73c-.43,0-.87,0-1.3,0-11.67.71-15.64,5.07-16,5.56a2.74,2.74,0,0,0-.08,3.4c.35.45,8.56,11.24,14.92,17a19,19,0,0,0,12.87,4.53,22.83,22.83,0,0,0,5-.51,2.77,2.77,0,0,0,1.8-1.45l.05-.11c.07.15.14.27.19.38a2.72,2.72,0,0,0,4.89,1.46s.57-.75,1.57-1.86a2.66,2.66,0,0,0,.12,1.45,2.7,2.7,0,0,0,1.91,1.7,51.73,51.73,0,0,0,11.09,1.17C85,117.3,91,115.84,95.82,113c11.12-6.66,26.26-18.08,26.9-18.56a2.72,2.72,0,0,0,.21-4.17c-.66-.6-4.78-3.77-21.88-6.87a51.15,51.15,0,0,0-9-.79Z"/><path class="cls-9" d="M39.79,87.32c9.94-.6,21.13,6.76,21.42,18.87,2.28-17.71,23.27-23,39.35-20.13,17.2,3.12,20.52,6.19,20.52,6.19S105.54,104,94.42,110.64s-28,2.84-28,2.84C76.87,99.07,94.73,95.19,94.73,95.19,75.73,93.78,61,113.7,61,113.7s0,.22,0,.08c-.29-.79-6.82-15.63-20-18a33.66,33.66,0,0,1,15.13,16.14s-9.63,2.24-15.87-3.39S25.66,91.91,25.66,91.91,29,88,39.79,87.32Z"/><path class="cls-4" d="M103.68,102c-7.8,5.27-16.33,9.63-26,9a.71.71,0,0,1-.68-.89c1.89-7.24,7.87-10.62,13.94-13.82-5.83,2-17,6.9-24.49,17.16,0,0,16.89,3.82,28-2.84s26.66-18.39,26.66-18.39a3.29,3.29,0,0,0-.39-.28C114.5,94,108.75,98.62,103.68,102Z"/><path class="cls-4" d="M41.36,96l-.47-.21a43.72,43.72,0,0,1,9,11.64s-2.62.8-6.9-1.06c-4.81-2.09-5.58-3-10.18-5.6a91.85,91.85,0,0,0,7.41,7.79c6.24,5.63,15.87,3.39,15.87,3.39A34,34,0,0,0,41.36,96Z"/><path class="cls-2" d="M72,2.72a20.91,20.91,0,0,1,9.27,14.69c1.49,10-3.89,14.08-3.89,14.08C70.19,27,66.21,19.27,67,12.48,67.74,5.4,72,2.72,72,2.72M72,0A2.76,2.76,0,0,0,70.6.41c-.22.14-5.43,3.48-6.35,11.77-.88,8,3.83,16.72,11.73,21.62a2.76,2.76,0,0,0,1.44.41,2.69,2.69,0,0,0,1.64-.56c.28-.2,6.65-5.18,4.94-16.64A23.6,23.6,0,0,0,73.38.35,2.79,2.79,0,0,0,72,0Z"/><path class="cls-9" d="M77.42,31.49C70.19,27,66.21,19.27,67,12.48,67.74,5.4,72,2.72,72,2.72a20.91,20.91,0,0,1,9.27,14.69C82.8,27.41,77.42,31.49,77.42,31.49Z"/><path class="cls-4" d="M81.31,17.41A21.35,21.35,0,0,0,76.12,6.22a2.7,2.7,0,0,0,.18.5C78,9.55,80.55,18.33,77.45,25.17c-.41.89-1.8-4.19-2.07-3.5C74.91,22.84,75.27,26,75,26c-2.31-.12-5.25-2.89-6.62-4.9a23,23,0,0,0,9.08,10.44S82.8,27.41,81.31,17.41Z"/><path class="cls-2" d="M77.68,32.64c-1.14-1.38-2.51-4.7-3.46-10.26-.39-2.28-.88-5.58-1.09-7.69-.12-1.27.16-1.71.68-.48.8,1.88,1.66,5.34,2.87,8.53a32.09,32.09,0,0,1,1.79,9.65Z"/><text class="cls-18" transform="translate(149.45 64.9) scale(1.01 1)">VEGE<tspan class="cls-8" x="114.41" y="0">TABLE</tspan></text><text class="cls-19" transform="translate(151.24 100.87)">THE B<tspan class="cls-20" x="76.51" y="0">E</tspan><tspan class="cls-21" x="92.58" y="0">S</tspan><tspan x="108.65" y="0">T Q</tspan><tspan class="cls-22" x="154.41" y="0">U</tspan><tspan class="cls-23" x="172.36" y="0">ALI</tspan><tspan class="cls-24" x="215.25" y="0">T</tspan><tspan class="cls-25" x="232.35" y="0">Y</tspan></text></g></g></g></svg>