<svg width="33" height="28" viewBox="0 0 33 28" fill="none" xmlns="http://www.w3.org/2000/svg">
<path d="M30.73 15.8875L29.9175 12.575C30.0216 12.5541 30.1102 12.4968 30.1831 12.4031C30.256 12.3093 30.2925 12.2 30.2925 12.075V11.5437C30.2925 10.9604 30.0894 10.4656 29.6831 10.0593C29.2769 9.65308 28.7821 9.44995 28.1987 9.44995H24.4175V8.32495C24.4175 8.05412 24.3185 7.81453 24.1206 7.6062C23.9227 7.39787 23.6779 7.2937 23.3862 7.2937H16.3862L20.6362 5.6062C20.7612 5.5437 20.855 5.44995 20.9175 5.32495C20.98 5.19995 20.98 5.07495 20.9175 4.94995C20.8758 4.82495 20.7873 4.7312 20.6519 4.6687C20.5164 4.6062 20.3862 4.6062 20.2612 4.6687L16.7612 6.07495C17.3029 5.72078 17.8081 5.37183 18.2769 5.02808C18.7456 4.68433 19.0841 4.37703 19.2925 4.1062C19.6883 3.58537 19.8394 3.00724 19.7456 2.37183C19.6519 1.73641 19.355 1.22078 18.855 0.824951C18.3341 0.449951 17.756 0.304118 17.1206 0.387451C16.4852 0.470785 15.9696 0.762451 15.5737 1.26245C15.3029 1.63745 14.9956 2.26766 14.6519 3.15308C14.3081 4.03849 14.0112 4.8562 13.7612 5.6062C13.5321 4.8562 13.2456 4.03849 12.9019 3.15308C12.5581 2.26766 12.2404 1.63745 11.9487 1.26245C11.5737 0.762451 11.0633 0.470785 10.4175 0.387451C9.77165 0.304118 9.19873 0.449951 8.69873 0.824951C8.1779 1.22078 7.87581 1.73641 7.79248 2.37183C7.70915 3.00724 7.8654 3.58537 8.26123 4.1062C8.44873 4.37703 8.78206 4.68433 9.26123 5.02808C9.7404 5.37183 10.2404 5.72078 10.7612 6.07495L7.29248 4.6687C7.14665 4.6062 7.01123 4.6062 6.88623 4.6687C6.76123 4.7312 6.6779 4.82495 6.63623 4.94995C6.57373 5.07495 6.56852 5.19995 6.62061 5.32495C6.67269 5.44995 6.77165 5.5437 6.91748 5.6062L11.1675 7.2937H4.16748C3.87581 7.2937 3.62581 7.39787 3.41748 7.6062C3.20915 7.81453 3.10498 8.05412 3.10498 8.32495V17.4187C3.10498 17.5645 3.15706 17.6843 3.26123 17.7781C3.3654 17.8718 3.47998 17.9187 3.60498 17.9187C3.75081 17.9187 3.87061 17.8718 3.96436 17.7781C4.05811 17.6843 4.10498 17.5645 4.10498 17.4187V8.32495C4.10498 8.32495 4.11019 8.31974 4.12061 8.30933C4.13102 8.29891 4.14665 8.2937 4.16748 8.2937H23.3862C23.4071 8.2937 23.4175 8.29891 23.4175 8.30933C23.4175 8.31974 23.4175 8.32495 23.4175 8.32495V17.4187C23.4175 17.5645 23.4696 17.6843 23.5737 17.7781C23.6779 17.8718 23.7925 17.9187 23.9175 17.9187C24.0633 17.9187 24.1831 17.8718 24.2769 17.7781C24.3706 17.6843 24.4175 17.5645 24.4175 17.4187V16.8562H30.3237C30.3446 16.8562 30.355 16.8562 30.355 16.8562C30.7091 16.8562 31.0269 16.9656 31.3081 17.1843C31.5894 17.4031 31.7821 17.6687 31.8862 17.9812H30.355C30.2091 17.9812 30.0894 18.0333 29.9956 18.1375C29.9019 18.2416 29.855 18.3562 29.855 18.4812V19.575C29.855 19.9916 30.006 20.3562 30.3081 20.6687C30.6102 20.9812 30.98 21.1375 31.4175 21.1375H31.98V23.325H30.6675C30.4591 22.7208 30.0789 22.2156 29.5269 21.8093C28.9748 21.4031 28.355 21.2 27.6675 21.2C26.98 21.2 26.3602 21.4031 25.8081 21.8093C25.256 22.2156 24.8758 22.7208 24.6675 23.325H24.4175V19.575C24.4175 19.4291 24.3706 19.3093 24.2769 19.2156C24.1831 19.1218 24.0633 19.075 23.9175 19.075C23.7925 19.075 23.6779 19.1218 23.5737 19.2156C23.4696 19.3093 23.4175 19.4291 23.4175 19.575V23.325H13.0425C12.8133 22.7208 12.4279 22.2156 11.8862 21.8093C11.3446 21.4031 10.73 21.2 10.0425 21.2C9.33415 21.2 8.70915 21.4031 8.16748 21.8093C7.62581 22.2156 7.25081 22.7208 7.04248 23.325H4.16748C4.14665 23.325 4.13102 23.325 4.12061 23.325C4.11019 23.325 4.10498 23.3145 4.10498 23.2937V22.2H6.29248C6.43831 22.2 6.55811 22.1531 6.65186 22.0593C6.74561 21.9656 6.79248 21.8458 6.79248 21.7C6.79248 21.5541 6.74561 21.4343 6.65186 21.3406C6.55811 21.2468 6.43831 21.2 6.29248 21.2H1.47998C1.33415 21.2 1.21436 21.2468 1.12061 21.3406C1.02686 21.4343 0.97998 21.5541 0.97998 21.7C0.97998 21.8458 1.02686 21.9656 1.12061 22.0593C1.21436 22.1531 1.33415 22.2 1.47998 22.2H3.10498V23.2937C3.10498 23.5854 3.20915 23.8302 3.41748 24.0281C3.62581 24.226 3.87581 24.325 4.16748 24.325H6.85498C6.85498 24.3458 6.85498 24.3562 6.85498 24.3562C6.85498 25.2312 7.16748 25.9812 7.79248 26.6062C8.41748 27.2312 9.16748 27.5437 10.0425 27.5437C10.9175 27.5437 11.6623 27.2312 12.2769 26.6062C12.8914 25.9812 13.1987 25.2312 13.1987 24.3562C13.1987 24.3562 13.1987 24.3458 13.1987 24.325H24.5112C24.5112 24.3458 24.506 24.3562 24.4956 24.3562C24.4852 24.3562 24.48 24.3562 24.48 24.3562C24.48 25.2312 24.7925 25.9812 25.4175 26.6062C26.0425 27.2312 26.7925 27.5437 27.6675 27.5437C28.5425 27.5437 29.2925 27.2312 29.9175 26.6062C30.5425 25.9812 30.855 25.2312 30.855 24.3562C30.855 24.3562 30.855 24.3458 30.855 24.325H32.48C32.6258 24.325 32.7456 24.2781 32.8394 24.1843C32.9331 24.0906 32.98 23.9708 32.98 23.825V18.4812C32.98 17.8354 32.7664 17.2677 32.3394 16.7781C31.9123 16.2885 31.3758 15.9916 30.73 15.8875ZM11.7925 5.51245C10.7925 4.90828 10.105 4.44995 9.72998 4.13745C9.35498 3.82495 9.12581 3.6062 9.04248 3.4812C8.83415 3.18953 8.75081 2.86141 8.79248 2.49683C8.83415 2.13224 9.00081 1.84578 9.29248 1.63745C9.41748 1.53328 9.54769 1.46037 9.68311 1.4187C9.81852 1.37703 9.95915 1.3562 10.105 1.3562C10.3133 1.3562 10.5112 1.40308 10.6987 1.49683C10.8862 1.59058 11.0425 1.72078 11.1675 1.88745C11.4175 2.19995 11.7091 2.80412 12.0425 3.69995C12.3758 4.59578 12.6675 5.42912 12.9175 6.19995C12.7508 6.09578 12.5685 5.98641 12.3706 5.87183C12.1727 5.75724 11.98 5.63745 11.7925 5.51245ZM14.6362 6.19995C14.8862 5.42912 15.1779 4.59578 15.5112 3.69995C15.8446 2.80412 16.1362 2.19995 16.3862 1.88745C16.5946 1.59578 16.881 1.42391 17.2456 1.37183C17.6102 1.31974 17.9383 1.40828 18.23 1.63745C18.5216 1.84578 18.6935 2.13224 18.7456 2.49683C18.7977 2.86141 18.7196 3.18953 18.5112 3.4812C18.4071 3.6062 18.1675 3.82495 17.7925 4.13745C17.4175 4.44995 16.7404 4.90828 15.7612 5.51245C15.5529 5.63745 15.355 5.75724 15.1675 5.87183C14.98 5.98641 14.8029 6.09578 14.6362 6.19995ZM24.4175 10.45H28.1987C28.5112 10.45 28.7716 10.5541 28.98 10.7625C29.1883 10.9708 29.2925 11.2312 29.2925 11.5437V11.575H24.4175V10.45ZM24.4175 15.8562V12.575H28.8862L29.6987 15.8562H24.4175ZM10.0425 26.5437C9.43831 26.5437 8.92269 26.3302 8.49561 25.9031C8.06852 25.476 7.85498 24.9604 7.85498 24.3562C7.85498 23.7729 8.06852 23.2677 8.49561 22.8406C8.92269 22.4135 9.43831 22.2 10.0425 22.2C10.6258 22.2 11.131 22.4135 11.5581 22.8406C11.9852 23.2677 12.1987 23.7729 12.1987 24.3562C12.1987 24.9604 11.9852 25.476 11.5581 25.9031C11.131 26.3302 10.6258 26.5437 10.0425 26.5437ZM27.6675 26.5437C27.0633 26.5437 26.5529 26.3302 26.1362 25.9031C25.7196 25.476 25.5112 24.9604 25.5112 24.3562C25.5112 23.7729 25.7196 23.2677 26.1362 22.8406C26.5529 22.4135 27.0633 22.2 27.6675 22.2C28.2716 22.2 28.7873 22.4135 29.2144 22.8406C29.6414 23.2677 29.855 23.7729 29.855 24.3562C29.855 24.9604 29.6414 25.476 29.2144 25.9031C28.7873 26.3302 28.2716 26.5437 27.6675 26.5437ZM31.98 20.1375H31.4175C31.2508 20.1375 31.1154 20.0802 31.0112 19.9656C30.9071 19.851 30.855 19.7208 30.855 19.575V18.9812H31.98V20.1375ZM10.0425 23.325C9.75081 23.325 9.50602 23.4291 9.30811 23.6375C9.11019 23.8458 9.01123 24.0854 9.01123 24.3562C9.01123 24.6479 9.11019 24.8979 9.30811 25.1062C9.50602 25.3145 9.75081 25.4187 10.0425 25.4187C10.3133 25.4187 10.5529 25.3145 10.7612 25.1062C10.9696 24.8979 11.0737 24.6479 11.0737 24.3562C11.0737 24.0854 10.9696 23.8458 10.7612 23.6375C10.5529 23.4291 10.3133 23.325 10.0425 23.325ZM27.6675 23.325C27.3758 23.325 27.131 23.4291 26.9331 23.6375C26.7352 23.8458 26.6362 24.0854 26.6362 24.3562C26.6362 24.6479 26.7352 24.8979 26.9331 25.1062C27.131 25.3145 27.3758 25.4187 27.6675 25.4187C27.9591 25.4187 28.2039 25.3145 28.4019 25.1062C28.5998 24.8979 28.6987 24.6479 28.6987 24.3562C28.6987 24.0854 28.5998 23.8458 28.4019 23.6375C28.2039 23.4291 27.9591 23.325 27.6675 23.325ZM21.7925 21.2H14.2925C14.1675 21.2 14.0529 21.2468 13.9487 21.3406C13.8446 21.4343 13.7925 21.5541 13.7925 21.7C13.7925 21.8458 13.8446 21.9656 13.9487 22.0593C14.0529 22.1531 14.1675 22.2 14.2925 22.2H21.7925C21.9383 22.2 22.0581 22.1531 22.1519 22.0593C22.2456 21.9656 22.2925 21.8458 22.2925 21.7C22.2925 21.5541 22.2456 21.4343 22.1519 21.3406C22.0581 21.2468 21.9383 21.2 21.7925 21.2ZM8.94873 19.075H2.54248C2.41748 19.075 2.3029 19.1218 2.19873 19.2156C2.09456 19.3093 2.04248 19.4291 2.04248 19.575C2.04248 19.7 2.09456 19.8145 2.19873 19.9187C2.3029 20.0229 2.41748 20.075 2.54248 20.075H8.94873C9.09456 20.075 9.21436 20.0229 9.30811 19.9187C9.40186 19.8145 9.44873 19.7 9.44873 19.575C9.44873 19.4291 9.40186 19.3093 9.30811 19.2156C9.21436 19.1218 9.09456 19.075 8.94873 19.075ZM8.94873 11.575H6.82373C6.6779 11.575 6.55811 11.6218 6.46436 11.7156C6.37061 11.8093 6.32373 11.9291 6.32373 12.075V16.3562C6.32373 16.502 6.37061 16.6218 6.46436 16.7156C6.55811 16.8093 6.6779 16.8562 6.82373 16.8562C6.96956 16.8562 7.08936 16.8093 7.18311 16.7156C7.27686 16.6218 7.32373 16.502 7.32373 16.3562V14.7312H8.41748C8.56331 14.7312 8.68311 14.6791 8.77686 14.575C8.87061 14.4708 8.91748 14.3562 8.91748 14.2312C8.91748 14.0854 8.87061 13.9656 8.77686 13.8718C8.68311 13.7781 8.56331 13.7312 8.41748 13.7312H7.32373V12.575H8.94873C9.09456 12.575 9.21436 12.5281 9.30811 12.4343C9.40186 12.3406 9.44873 12.2208 9.44873 12.075C9.44873 11.9291 9.40186 11.8093 9.30811 11.7156C9.21436 11.6218 9.09456 11.575 8.94873 11.575ZM12.9175 14.95C13.1675 14.7833 13.3654 14.5645 13.5112 14.2937C13.6571 14.0229 13.73 13.7312 13.73 13.4187C13.73 12.9187 13.5529 12.4864 13.1987 12.1218C12.8446 11.7572 12.4175 11.575 11.9175 11.575H10.5737C10.4279 11.575 10.3081 11.6218 10.2144 11.7156C10.1206 11.8093 10.0737 11.9291 10.0737 12.075V16.3562C10.0737 16.502 10.1206 16.6218 10.2144 16.7156C10.3081 16.8093 10.4279 16.8562 10.5737 16.8562C10.6987 16.8562 10.8133 16.8093 10.9175 16.7156C11.0216 16.6218 11.0737 16.502 11.0737 16.3562V15.2625H11.8862L12.8237 16.6375C12.8654 16.7 12.9227 16.752 12.9956 16.7937C13.0685 16.8354 13.1466 16.8562 13.23 16.8562C13.2925 16.8562 13.3446 16.851 13.3862 16.8406C13.4279 16.8302 13.4696 16.8041 13.5112 16.7625C13.6362 16.7 13.7091 16.601 13.73 16.4656C13.7508 16.3302 13.73 16.2 13.6675 16.075L12.9175 14.95ZM11.9175 14.2625H11.0737V12.575H11.9175C12.1466 12.575 12.3394 12.6583 12.4956 12.825C12.6519 12.9916 12.73 13.1895 12.73 13.4187C12.73 13.6479 12.6519 13.8458 12.4956 14.0125C12.3394 14.1791 12.1466 14.2625 11.9175 14.2625ZM16.98 15.8562H15.355V14.7312C15.355 14.7312 15.3654 14.7312 15.3862 14.7312H16.4487C16.5946 14.7312 16.7144 14.6791 16.8081 14.575C16.9019 14.4708 16.9487 14.3562 16.9487 14.2312C16.9487 14.0854 16.9019 13.9656 16.8081 13.8718C16.7144 13.7781 16.5946 13.7312 16.4487 13.7312H15.3862C15.3654 13.7312 15.355 13.7312 15.355 13.7312V12.575H16.98C17.1258 12.575 17.2456 12.5281 17.3394 12.4343C17.4331 12.3406 17.48 12.2208 17.48 12.075C17.48 11.9291 17.4331 11.8093 17.3394 11.7156C17.2456 11.6218 17.1258 11.575 16.98 11.575H14.855C14.7091 11.575 14.5894 11.6218 14.4956 11.7156C14.4019 11.8093 14.355 11.9291 14.355 12.075V16.3562C14.355 16.502 14.4019 16.6218 14.4956 16.7156C14.5894 16.8093 14.7091 16.8562 14.855 16.8562H16.98C17.1258 16.8562 17.2456 16.8093 17.3394 16.7156C17.4331 16.6218 17.48 16.502 17.48 16.3562C17.48 16.2104 17.4331 16.0906 17.3394 15.9968C17.2456 15.9031 17.1258 15.8562 16.98 15.8562ZM20.73 15.8562H19.0737V14.7312H19.6675C19.7925 14.7312 19.9071 14.6791 20.0112 14.575C20.1154 14.4708 20.1675 14.3562 20.1675 14.2312C20.1675 14.0854 20.1154 13.9656 20.0112 13.8718C19.9071 13.7781 19.7925 13.7312 19.6675 13.7312H19.0737V12.575H20.73C20.855 12.575 20.9696 12.5281 21.0737 12.4343C21.1779 12.3406 21.23 12.2208 21.23 12.075C21.23 11.9291 21.1779 11.8093 21.0737 11.7156C20.9696 11.6218 20.855 11.575 20.73 11.575H18.5737C18.4487 11.575 18.3341 11.6218 18.23 11.7156C18.1258 11.8093 18.0737 11.9291 18.0737 12.075V16.3562C18.0737 16.502 18.1258 16.6218 18.23 16.7156C18.3341 16.8093 18.4487 16.8562 18.5737 16.8562H20.73C20.855 16.8562 20.9696 16.8093 21.0737 16.7156C21.1779 16.6218 21.23 16.502 21.23 16.3562C21.23 16.2104 21.1779 16.0906 21.0737 15.9968C20.9696 15.9031 20.855 15.8562 20.73 15.8562Z" fill="#646464"/>
</svg>
