<svg xmlns="http://www.w3.org/2000/svg" viewBox="0 0 265.69 246.25"><defs><style>.cls-1{isolation:isolate;}.cls-2{fill:#455218;}.cls-3{fill:#99c12a;}.cls-4{fill:#7c943a;}.cls-5{fill:#e36b00;}.cls-6{fill:#d15e00;}.cls-7{fill:#c74600;}.cls-8{fill:#7e9e2c;}.cls-9{fill:#b3c948;}.cls-10{fill:#e74641;}.cls-11{fill:#e7807d;}.cls-12{fill:#c9bdbd;}.cls-12,.cls-17{mix-blend-mode:multiply;}.cls-13{fill:#ecc54a;}.cls-14{fill:#683c1d;}.cls-15{fill:#814c2e;}.cls-16{fill:#fff;opacity:0.59;}.cls-17{fill:#d9cccc;}</style></defs><g class="cls-1"><g id="Layer_2" data-name="Layer 2"><g id="OBJECTS"><path class="cls-2" d="M215.59,22.73c3.58,1.15,17.8,9.28,21,10.37C233.35,40.4,232,46.16,225.45,55c8.8-8.28,11.29-12.75,15.74-20.3L249,37.27c-10.21,14.41-27.06,33.57-29.76,33.57a.33.33,0,0,1-.15,0,5.78,5.78,0,0,1-2.91-4.08,4.75,4.75,0,0,1-2.21.49c-2.57,0-5.5-1.54-6.2-3.09-.41-.87,9-27.45,7.85-41.4m0-5.67a5.67,5.67,0,0,0-5.65,6.15c.79,9.26-4,26-6.31,34.08-1.72,6-2,7.06-1,9.2,1.73,3.79,6.36,6,10.27,6.35a9.75,9.75,0,0,0,4,3.2,6.09,6.09,0,0,0,2.35.47h0c2.74,0,5-1.68,8.27-4.79,2.18-2.08,5-5,8-8.51A289.35,289.35,0,0,0,253.6,40.55a5.68,5.68,0,0,0-2.83-8.66L248.19,31,243,29.29a5.74,5.74,0,0,0-1.82-.3,4.44,4.44,0,0,0-.63,0,5.7,5.7,0,0,0-2.13-1.3c-1.13-.38-5.82-2.85-8.92-4.48-6.12-3.22-10-5.22-12.19-5.92a5.68,5.68,0,0,0-1.73-.27Z"/><path class="cls-3" d="M241.19,34.66c-4.45,7.55-6.94,12-15.74,20.3,6.52-8.8,7.9-14.56,11.16-21.86-3.22-1.09-17.44-9.22-21-10.37,1.19,14-8.26,40.53-7.85,41.4.92,2,5.66,4,8.41,2.6a5.78,5.78,0,0,0,2.91,4.08c2.1.89,19.47-18.81,29.91-33.54Z"/><path class="cls-4" d="M241.19,34.66c-4.45,7.55-6.94,12-15.73,20.3,6.51-8.8,7.89-14.56,11.15-21.86a26,26,0,0,1-2.86-1.28c-.23.33-.47.64-.71,1-1.57,6.7-2.88,13-10.78,16.4a22.1,22.1,0,0,1-10.93,1.58c-2,7.35-3.78,13-3.59,13.38.92,2,5.66,4,8.41,2.6a5.78,5.78,0,0,0,2.91,4.08c2.1.89,19.47-18.81,29.91-33.54Z"/><path class="cls-5" d="M202.7,122.34c-2.72,5.39-6.59,10-10.59,15.64-3.66,5.17-7.37,11.66-11.78,16.91a259,259,0,0,1-23.26,24.75c-2.38,2.18-14,10.51-14.52.59-.2-3.68,1.9-7.22,3.23-10.13,2.24-4.88,4.85-9.71,7-14.94s3.84-10.67,5.87-16c2.17-5.68,5.3-10.85,7.64-16.17,4.34-9.86,8.56-19,12.31-29.29,1.86-5.12,5.31-9.19,7.61-14.35,2-4.55,2.51-10,5.75-13.91,5.84-7.07,18.89-8.43,26.88-4.14,5.63,3,8.21,8.8,8.94,14.95.71,5.94-2.21,9.75-5.56,14.31-4.08,5.55-6.44,12.73-10.08,18.54C209,114.21,205,117.78,202.7,122.34Z"/><path class="cls-2" d="M208.27,58.88a22.73,22.73,0,0,1,10.59,2.44c5.65,3,8.21,8.8,8.94,14.95.72,6-2.2,9.75-5.54,14.3-4.1,5.56-6.46,12.75-10.09,18.55-3.19,5.09-7.18,8.66-9.48,13.22-2.71,5.39-6.58,10-10.57,15.65-.54.77-1.09,1.56-1.63,2.39-.71,1.05-1.44,2.14-2.16,3.24a115,115,0,0,1-8,11.26q-6.33,7.53-12.42,14c-.49.51-1,1-1.44,1.5q-4.74,5-9.4,9.23c-1.54,1.4-6.88,5.35-10.64,5.35-2.09,0-3.69-1.22-3.89-4.76s1.89-7.23,3.23-10.13c2.24-4.88,4.85-9.72,7-14.94.55-1.34,1.08-2.69,1.59-4.07.11-.34.23-.65.37-1,1.31-3.62,2.51-7.32,3.9-10.92,2.19-5.69,5.3-10.85,7.65-16.16,2-4.6,4-9,6-13.52.44-1,.85-2,1.27-2.94,1.76-4.15,3.47-8.38,5.09-12.83,1.87-5.14,5.31-9.21,7.61-14.36,2-4.55,2.52-10,5.75-13.91,3.62-4.39,10-6.58,16.28-6.58m0-5.67v0h0c-8.48,0-16.2,3.23-20.65,8.65-2.79,3.38-4,7.26-5,10.69a39.85,39.85,0,0,1-1.55,4.5,55.46,55.46,0,0,1-3.21,5.85,50.41,50.41,0,0,0-4.56,8.89c-1.43,3.94-3,7.93-5,12.56l-.32.76c-.29.68-.58,1.36-.89,2a.61.61,0,0,0-.05.12c-1.23,2.85-2.47,5.65-3.78,8.61l-2.15,4.87c-.91,2.05-1.95,4.1-3,6.27a108.9,108.9,0,0,0-4.7,10.13c-.89,2.3-1.69,4.63-2.48,6.87-.47,1.37-1,2.73-1.44,4.09-.14.36-.27.71-.4,1.07-.45,1.23-.94,2.48-1.49,3.83-1.28,3.05-2.76,6.08-4.2,9-.91,1.86-1.85,3.78-2.74,5.71-.19.42-.41.86-.63,1.31-1.42,2.93-3.36,6.93-3.11,11.5.42,7.47,5.41,10.12,9.55,10.12,6.83,0,14.13-6.53,14.44-6.81,3.12-2.84,6.37-6,9.68-9.5l.93-1,.52-.55c4-4.25,8.14-8.92,12.67-14.3a119,119,0,0,0,8.4-11.82c.7-1.07,1.42-2.14,2.11-3.17l0,0c.5-.77,1-1.5,1.53-2.25,1-1.48,2.11-2.93,3.15-4.33a83.87,83.87,0,0,0,7.85-12,36.71,36.71,0,0,1,4.27-6,68.34,68.34,0,0,0,4.94-6.72,87.86,87.86,0,0,0,4.58-8.67,61.22,61.22,0,0,1,5.27-9.52l.26-.35c3.43-4.67,7.31-10,6.35-18-1.07-9-5.18-15.67-11.89-19.27a28.19,28.19,0,0,0-13.27-3.11Z"/><path class="cls-5" d="M223.66,88.63c-.45.64-.92,1.28-1.4,1.94-.76,1-1.45,2.12-2.12,3.24-2.89,4.94-5,10.58-8,15.31-3.18,5.08-7.18,8.66-9.48,13.21-.4.8-.83,1.58-1.28,2.36-1,1.76-2.16,3.46-3.38,5.17-1.84,2.6-3.86,5.22-5.92,8.12-.53.78-1.08,1.57-1.62,2.4-.7,1-1.44,2.14-2.16,3.25a114.82,114.82,0,0,1-8,11.25q-6.32,7.53-12.43,14c-.49.5-1,1-1.43,1.51q-4.74,5-9.4,9.22c-2.39,2.16-14,10.51-14.53.59-.21-3.68,1.89-7.23,3.23-10.14,2.25-4.87,4.85-9.7,7-14.93.56-1.34,1.1-2.69,1.6-4.07l.37-1c1.31-3.62,2.51-7.31,3.9-10.92,2.19-5.69,5.3-10.85,7.65-16.15,2-4.61,4-9.07,5.94-13.52.45-1,.86-2,1.28-3,1.43-3.38,2.84-6.81,4.18-10.37l.92-2.46a30.75,30.75,0,0,1,1.69-3.79c1.87-3.51,4.2-6.73,5.91-10.57,2-4.56,2.52-10,5.76-13.9,5.82-7.09,18.88-8.43,26.86-4.15,5.65,3,8.21,8.8,8.95,14.95C228.42,81.35,226.36,84.88,223.66,88.63Z"/><path class="cls-6" d="M226.9,71.79c-.23.57-.44,1.09-.62,1.51-1.88,4.16-3.55,8.41-5.43,12.57-3.55,7.85-9,15.89-15.81,21.27s-17.24,8.62-25.7,5a18.59,18.59,0,0,1-6.26-4.46c-.27.62-.53,1.24-.82,1.86-1.91,4.45-3.92,8.91-5.94,13.52-2.35,5.3-5.46,10.46-7.65,16.15-1.39,3.61-2.59,7.3-3.9,10.92l-.37,1c-.5,1.38-1,2.73-1.6,4.07-2.17,5.23-4.77,10.06-7,14.93-1.34,2.91-3.44,6.46-3.23,10.14.56,9.92,12.14,1.57,14.53-.59q4.66-4.24,9.4-9.22c.47-.5.94-1,1.43-1.51q6.12-6.49,12.43-14a114.82,114.82,0,0,0,8-11.25c.72-1.11,1.46-2.21,2.16-3.25.54-.83,1.09-1.62,1.62-2.4,2.06-2.9,4.08-5.52,5.92-8.12,1.22-1.71,2.36-3.41,3.38-5.17.45-.78.88-1.56,1.28-2.36,2.3-4.55,6.3-8.13,9.48-13.21,3-4.73,5.08-10.37,8-15.31.67-1.12,1.36-2.21,2.12-3.24.48-.66,1-1.3,1.4-1.94,2.7-3.75,4.76-7.28,4.15-12.36A26.54,26.54,0,0,0,226.9,71.79Z"/><path class="cls-7" d="M220.14,93.81A19,19,0,0,1,218,92.64a26,26,0,0,1-9.33-9.77c4.91,1.29,7.66,1.74,12.8,4.5.8.42,1.52.85,2.21,1.26Z"/><path class="cls-7" d="M195.82,101.08a53.42,53.42,0,0,1-18.1-4.89l.92-2.46a30.75,30.75,0,0,1,1.69-3.79l.65.25C186.23,92.23,190.23,96.21,195.82,101.08Z"/><path class="cls-7" d="M201.41,124.69c-1,1.76-2.16,3.46-3.38,5.17-4.88-3.09-8.53-6.76-12.5-10.91C185.53,119,191.58,119,201.41,124.69Z"/><path class="cls-2" d="M157.44,139.71c-.69,1.94-1.47,3.87-2.31,5.79,7.44,3.95,17.11,9,17.11,9A84.82,84.82,0,0,0,157.44,139.71Z"/><path class="cls-2" d="M234.82,27.79S232.63,42.53,225.45,55c0,0,11.13-6.75,19.13-22.77Z"/><path class="cls-2" d="M69.1,134a39.06,39.06,0,0,0,.74,6.72c.54,3.2.61,10.3,5.49,14.53,3,2.57,9.75,7.41,14.62,10.82a70,70,0,0,1-11.75,16.1c-4.11-3.54-9.38-7.85-12.72-9.7a27.51,27.51,0,0,0-13.6-3.83c-.61,0-1.2,0-1.77.06-4.22.29-14.26,2.66-14.26,2.66l1.68-6s10.28-1.82,15.09-1.82l.67,0h.12c4,0-12.17-10.52-12.17-10.52l2.41-6.34s9.24,8.15,11.72,8.15a.6.6,0,0,0,.44-.15c1.46-1.44-5.56-8.6-5.56-8.6l4.64-5.78s4.48,8.81,8.66,9.71a4,4,0,0,0,.86.1c3,0,1.3-4.76.24-8.72a39.39,39.39,0,0,0-2.45-6.87l6.9-.58m.05-5.68a4.41,4.41,0,0,0-.52,0l-6.91.58a5.67,5.67,0,0,0-5.18,6,5.34,5.34,0,0,0-1.07-.22,5.49,5.49,0,0,0-.58,0,5.69,5.69,0,0,0-4.42,2.12l-4,5a5.72,5.72,0,0,0-2.8-.74,5.84,5.84,0,0,0-1.37.17,5.67,5.67,0,0,0-3.93,3.49L35.94,151a5.69,5.69,0,0,0,2.21,6.77l2.08,1.37c-1.9.29-3.31.54-3.69.6a5.69,5.69,0,0,0-4.47,4.05l-1.67,6A5.67,5.67,0,0,0,35.85,177a5.2,5.2,0,0,0,1.3-.16,128.84,128.84,0,0,1,13.34-2.51c.47,0,.94-.05,1.39-.05a21.87,21.87,0,0,1,10.85,3.12c1.34.74,4.66,2.91,11.77,9a5.69,5.69,0,0,0,7.76-.33A76.61,76.61,0,0,0,95,168.7a5.66,5.66,0,0,0-1.74-7.32c-7-4.89-12-8.61-14.17-10.47-2.47-2.14-3-6.21-3.34-9.18-.08-.71-.17-1.39-.27-2a39.4,39.4,0,0,1-.66-5.64,5.57,5.57,0,0,0-5.62-5.81Zm-.05,11.35h0Z"/><path class="cls-8" d="M65.48,172.42c3.34,1.85,8.61,6.16,12.72,9.7A70,70,0,0,0,90,166c-4.87-3.41-11.66-8.25-14.62-10.82-4.88-4.23-5-11.33-5.49-14.53A39.06,39.06,0,0,1,69.1,134l-6.9.58a39.39,39.39,0,0,1,2.45,6.87c1.14,4.3,3.07,9.53-1.1,8.62s-8.66-9.71-8.66-9.71l-4.64,5.78s7,7.16,5.56,8.6-12.16-8-12.16-8L41.24,153s16.49,10.71,12,10.52-15.76,1.8-15.76,1.8l-1.68,6s10-2.37,14.26-2.66S59.32,169,65.48,172.42Z"/><path class="cls-2" d="M44.33,109.46c5.83,0,10.42,5,10.42,5a7.1,7.1,0,0,1,6.49-4.18,10.38,10.38,0,0,1,6.8,2.86,13.61,13.61,0,0,1-9.55,23.69,13.19,13.19,0,0,1-6.79-1.81,17,17,0,0,1-8.26,12.49A14.22,14.22,0,0,1,39.6,149l.13.16c2.25,3.12,2.17,7.67.37,11.08-1.92,3.65-4.88,6.46-8.84,6.46-.3,0-.6,0-.91-.05,1.07,2.24-.18,6.78-1.66,8.45C27,177,23.25,178,20.15,178a10.73,10.73,0,0,1-2.52-.28,14.89,14.89,0,0,1-7.92-5.2c-2.5-3.1-4.41-6.78-4-10.75s2.78-8.72,6.73-9.24c-4.76-3.4-4.39-9.32-2.41-13a7.25,7.25,0,0,1,3.9-3.36,15.75,15.75,0,0,1,.19-11.09c2.33-5.39,7.42-9.88,13.23-9.88a12.43,12.43,0,0,1,6.83,2.15,11.55,11.55,0,0,1,5.44-6.74,10,10,0,0,1,4.69-1.17m0-5.67h0A15.72,15.72,0,0,0,37,105.6a16.14,16.14,0,0,0-5.33,4.51,17,17,0,0,0-4.32-.56c-7.59,0-15,5.35-18.43,13.3A20.77,20.77,0,0,0,7.55,133.6a12.88,12.88,0,0,0-2.49,3.25,16.61,16.61,0,0,0-.81,14.3,19,19,0,0,0-4.15,10c-.55,5,1.21,10,5.2,14.93a20.65,20.65,0,0,0,10.92,7.12,16.05,16.05,0,0,0,3.93.46c3.92,0,9.62-1.27,12.79-4.84a15.9,15.9,0,0,0,3.23-7.39c3.6-1.37,6.69-4.31,8.95-8.58a17.3,17.3,0,0,0,1.76-10.76,22,22,0,0,0,8.57-9.8,20.53,20.53,0,0,0,3,.23A19.28,19.28,0,0,0,71.88,109a16,16,0,0,0-10.64-4.36,12.46,12.46,0,0,0-7.09,2.14,18.77,18.77,0,0,0-9.82-3Z"/><path class="cls-9" d="M54.75,114.5s-7.25-8-15.11-3.87a11.55,11.55,0,0,0-5.44,6.74c-8.36-5.44-16.84.29-20.06,7.73A15.75,15.75,0,0,0,14,136.19a7.25,7.25,0,0,0-3.9,3.36c-2,3.67-2.35,9.59,2.41,13-4,.52-6.29,5.28-6.73,9.24s1.48,7.65,4,10.75a14.89,14.89,0,0,0,7.92,5.2c3.19.81,8.88-.19,11.06-2.65,1.48-1.67,2.73-6.21,1.66-8.45,4.41.47,7.68-2.48,9.75-6.41,1.8-3.41,1.88-8-.37-11.08L39.6,149a14.22,14.22,0,0,0,3.84-1.43,17,17,0,0,0,8.26-12.49A13.73,13.73,0,0,0,68,113.18C64.1,109.56,57.72,108.75,54.75,114.5Z"/><path class="cls-4" d="M26.91,148.09c2.31,6.37,1.65,12.61-2.05,17.13C20.93,170,8.6,169.29,5.68,163c.05,3.49,1.8,6.72,4,9.49a14.89,14.89,0,0,0,7.92,5.2c3.19.81,8.88-.19,11.06-2.65,1.48-1.67,2.73-6.21,1.66-8.45,4.41.47,7.68-2.48,9.75-6.41a11.38,11.38,0,0,0,.76-8.83A29.65,29.65,0,0,1,26.91,148.09Z"/><path class="cls-2" d="M39.6,149c-1.85.28-7.28,1.47-12.1-.47,0,0,5.56,8.25,13.71,6.48s8.48-7.69,8.48-7.69S41.54,148.68,39.6,149Z"/><path class="cls-2" d="M34.2,117.37s5.61,3.38,7.25,6.54c0,0-.25-9.92-8.15-13.84Z"/><path class="cls-2" d="M7.53,170s-3.07-8,1.52-12.32a9.61,9.61,0,0,1,9.39-2.11s-2.6-4.68-7.49-4.7c-6.69,0-8.68,6.61-8.68,6.61Z"/><path class="cls-2" d="M51.7,135.06a30.57,30.57,0,0,0-2-11s8.74,2.65,8.32,15.17Z"/><path class="cls-2" d="M14,136.19s2.26,5.38,5.72,6.23c0,0-10.43,2.58-12.53-6.42Z"/><path class="cls-10" d="M257.69,119.22c6.8,27.93.2,53.76-38.23,65.93-39.06,12.38-58.61-4.35-69.38-30.72-.53-1.32-.18-4.46,1-4.84l102.79-33.16C255,116.07,257.39,118,257.69,119.22Z"/><path class="cls-2" d="M254.17,116.39a4.9,4.9,0,0,1,3.52,2.83c6.8,27.93.2,53.76-38.23,65.93a80,80,0,0,1-24,4.16c-23.58,0-37.07-14.58-45.36-34.88-.53-1.32-.18-4.46,1-4.84l102.79-33.16a1,1,0,0,1,.31,0m0-5.67h0a6.66,6.66,0,0,0-2,.32l-43.44,14L149.33,144.2a7,7,0,0,0-4.18,3.83,11.7,11.7,0,0,0-.31,8.54c4.87,12,10.94,20.86,18.54,27.25C172.18,191.23,183,195,195.44,195a86.33,86.33,0,0,0,25.74-4.42c36.26-11.49,50.8-36.62,42-72.68-.89-3.68-5.28-7.16-9-7.16Z"/><path class="cls-11" d="M243.08,128c5.37,19-1.21,37.84-27.18,46.06-26.55,8.41-42.24-3-49-21.49Z"/><path class="cls-10" d="M210.14,148c2.82,4.71,7.23,12,7.44,17.1s-5.34,5.63-6.94,2.29c-2.29-4.81-3.39-14.79-3.66-18.27S207.71,143.93,210.14,148Z"/><path class="cls-10" d="M200.34,151.9c.69,4.93,1.79,12.63,0,16.86s-7.14,2.59-7.27-.76c-.17-4.82,2.82-13.44,4-16.39S199.75,147.62,200.34,151.9Z"/><path class="cls-10" d="M191.78,153.67c-2.21,3.32-5.63,8.52-9.06,9.9s-5.91-2.78-4.2-4.82c2.47-2.94,9-6.21,11.29-7.26S193.69,150.8,191.78,153.67Z"/><path class="cls-10" d="M215.52,147c2.32,4.41,5.92,11.3,9.89,13.66s7.3-2.07,5.45-4.86c-2.68-4-10.14-9.26-12.8-11S213.5,143.19,215.52,147Z"/><path class="cls-10" d="M223.5,143.44c3.73,1.4,9.54,3.62,13.14,2.74s3.17-5.71.59-6.37c-3.73-.94-10.92.21-13.41.71S220.27,142.22,223.5,143.44Z"/><path class="cls-12" d="M229.18,167.94a37.7,37.7,0,0,1-19.46-4.35c-17.94-9.92-17.41-23.89-18.82-26.85l-39.83,12.85c-1.17.38-1.52,3.52-1,4.84,10.77,26.37,30.32,43.1,69.38,30.72,24-7.59,35.54-20.48,39.22-35.88C253.16,158.84,243.06,167.58,229.18,167.94Z"/><path class="cls-2" d="M105.71,60.32c.5,3.58-8.4,5.91-12,5.64-3-.24-1.65-5.11-1.8-8.21-.2-4.16-4.12-13.77-6.06-19.42-1.56-4.53,3.88-4.79,5.18-3.87a0,0,0,0,1,0,0c2.15,1.59,4.32,9.67,6.26,15.33S105.2,56.76,105.71,60.32Z"/><path class="cls-2" d="M105.8,57.62a24.47,24.47,0,0,1,15.63,5.78,30.14,30.14,0,0,1,3.32,3.13c7.67,8.39,9.59,11.26,30,30.28,19.41,18.08,42.76,48.08,30.09,76-10,22-29.46,31-37.51,32.92a54.57,54.57,0,0,1-20.86,3.84,60.75,60.75,0,0,1-28.93-7.27C70.55,187.78,72.1,150,75.4,123.62c.35-2.86.68-5.48,1-7.89,2.17-17.67,2.77-24,3.48-34,.29-4,3.33-17.91,17.08-22.55a27.54,27.54,0,0,1,8.87-1.53m0-5.67h0a33.6,33.6,0,0,0-10.69,1.83C79.77,59,74.72,74,74.2,81.29c-.72,10.09-1.32,16.38-3.45,33.75l-.69,5.56-.29,2.32c-1.47,11.77-3.1,29.3-.24,45.46,3.28,18.54,11.8,31.63,25.34,38.91a66.11,66.11,0,0,0,31.61,7.94,60.38,60.38,0,0,0,22.68-4.12c10.54-2.72,30.5-13.18,40.86-36,14.77-32.56-13.33-65.66-31.39-82.49-16.88-15.72-21-20.31-26.24-26.13-1.07-1.19-2.18-2.43-3.46-3.82A34.12,34.12,0,0,0,125,59a30.13,30.13,0,0,0-19.19-7Z"/><path class="cls-8" d="M184.85,172.8c-10,22-29.46,31-37.51,32.92-7.59,3.34-28.48,8-49.79-3.43C70.55,187.78,72.1,150,75.4,123.62c.35-2.86.68-5.48,1-7.89,2.17-17.67,2.77-24,3.48-34,.29-4,3.33-17.91,17.08-22.55,10.5-3.54,18.75-.44,24.5,4.25a30.14,30.14,0,0,1,3.32,3.13c7.67,8.39,9.59,11.26,30,30.28C174.17,114.89,197.52,144.89,184.85,172.8Z"/><path class="cls-13" d="M173.74,170.9c-7.49,18.46-22.75,25.64-29.1,27.12-5.95,2.67-22.44,6.21-39.58-3.92C83.33,181.24,83.79,149.24,85.86,127c.23-2.42.43-4.63.62-6.67,1.35-14.93,1.7-20.32,2.06-28.76.15-3.35,2.28-15.11,13.09-18.76,8.26-2.79,14.87,0,19.53,4.1a24.81,24.81,0,0,1,2.7,2.73c6.26,7.26,7.84,9.73,24.44,26.27C164.07,121.6,183.22,147.5,173.74,170.9Z"/><path class="cls-14" d="M153.72,140.62c5.72,15.11-.32,31.4-13.49,36.39s-28.48-3.23-34.2-18.34c-6.82-18-3.73-42.08,9.45-47.07,4.71-1.78,10.07-.88,15.34,1.84C140.24,118.31,149.34,129.05,153.72,140.62Z"/><path class="cls-15" d="M111,118.89c-3.87,6.27-5.15,22-.85,34.23s13.94,13.72,21.93,11.71,12.79-17.72,8-28.78C132.42,118.58,118.93,106.06,111,118.89Z"/><path class="cls-16" d="M115.28,125.4c-4.89,4.85-4.77,18.4-.38,23.56s5.36-1.89,6.09-6.1c.52-3,2.15-24.5-5.48-17.67Z"/><path class="cls-17" d="M142.54,185c-37.56,6.74-65.7-24.83-68.89-33.77.37,20.51,5.52,41.19,23.9,51.07,21.31,11.45,42.2,6.77,49.79,3.43,8-1.95,27.51-10.89,37.51-32.92,4.48-9.87,4.44-20,1.68-29.78C177.72,173.26,172.24,179.66,142.54,185Z"/><path class="cls-2" d="M110,239.15h10.1c2.18,3,4.37,7.09,7,7.1s4.28-2.06,7.45-5.07c0,0,9.51,3.2,13.15,1.39l-1.45-15.5L110,223.7Z"/><path class="cls-2" d="M191.79,177.7a99.55,99.55,0,0,1,17.68,1.56c35.81,6.49,42.73,12.89,42.73,12.89s-32.37,24.43-55.53,38.31c-10.79,6.46-23.73,8.19-34.47,8.19a103.18,103.18,0,0,1-21.77-2.27c21.8-30,56.89-38.1,56.89-38.1q-2.08-.15-4.14-.15c-37.56,0-66.1,37.65-66.1,37.65,0-.3,0-.59,0-.89-.59-1.65-16.23-33.38-41.73-35.4,0,0,19.64,9.37,30.46,33.62a41.91,41.91,0,0,1-9,.91c-6.64,0-15.75-1.44-23-8-13-11.74-30.36-34.6-30.36-34.6s6.84-8.19,29.42-9.55c.79,0,1.58-.07,2.37-.07,20.07,0,41.67,15.09,42.25,39.37,4-30.63,34.78-43.49,64.3-43.49m0-5.67c-16.75,0-32.6,3.92-44.63,11.05a52.51,52.51,0,0,0-18.95,18.56,45.33,45.33,0,0,0-10.85-13.55,50.29,50.29,0,0,0-32.12-11.94c-.9,0-1.81,0-2.71.08C58.21,177.69,50,186.78,49.1,187.81a5.66,5.66,0,0,0-.17,7.06c.72.95,17.83,23.42,31.08,35.38,8.66,7.8,19.35,9.44,26.8,9.44a46.66,46.66,0,0,0,10.36-1.08,5.67,5.67,0,0,0,3.74-3,1.47,1.47,0,0,0,.1-.22c.16.3.3.56.41.78a5.65,5.65,0,0,0,3.88,5,5.77,5.77,0,0,0,1.78.29,5.66,5.66,0,0,0,4.51-2.25c.06-.07,1.2-1.55,3.27-3.87a5.73,5.73,0,0,0,.26,3,5.64,5.64,0,0,0,4,3.55,108.13,108.13,0,0,0,23.09,2.43c14.84,0,27.42-3,37.38-9,23.16-13.87,54.71-37.64,56-38.65a5.66,5.66,0,0,0,.43-8.69c-1.36-1.25-9.94-7.84-45.57-14.3A105.88,105.88,0,0,0,191.79,172Z"/><path class="cls-9" d="M82.87,181.89c20.71-1.25,44,14.07,44.62,39.3,4.75-36.89,48.48-48,82-41.93,35.81,6.49,42.73,12.89,42.73,12.89s-32.37,24.43-55.53,38.31-58.34,5.92-58.34,5.92c21.79-30,59-38.1,59-38.1-39.57-2.95-70.24,38.55-70.24,38.55,0-.3,0,.46,0,.17-.59-1.65-14.2-32.57-41.73-37.51,0,0,20.7,9.37,31.51,33.62,0,0-20.05,4.66-33.06-7.07s-30.36-34.6-30.36-34.6S60.29,183.25,82.87,181.89Z"/><path class="cls-4" d="M216,212.54c-16.25,11-34,20.05-54.24,18.73a1.48,1.48,0,0,1-1.41-1.86c3.93-15.08,16.38-22.12,29-28.79-12.15,4.13-35.48,14.37-51,35.76,0,0,35.18,8,58.34-5.92s55.53-38.31,55.53-38.31a7.44,7.44,0,0,0-.8-.59C238.5,195.86,226.52,205.41,216,212.54Z"/><path class="cls-4" d="M86.16,199.88l-1-.44c6.51,5.84,12.35,12.9,18.81,24.26,0,0-5.47,1.65-14.38-2.22-10-4.36-11.62-6.2-21.2-11.66A191.28,191.28,0,0,0,83.81,226c13,11.73,33.06,7.07,33.06,7.07A70.78,70.78,0,0,0,86.16,199.88Z"/><path class="cls-2" d="M150.06,5.67a43.56,43.56,0,0,1,19.31,30.59c3.09,20.82-8.11,29.32-8.11,29.32C146.19,56.25,137.91,40.14,139.47,26c1.63-14.74,10.59-20.33,10.59-20.33m0-5.67a5.65,5.65,0,0,0-3,.86c-.46.29-11.32,7.24-13.23,24.51-1.84,16.73,8,34.83,24.44,45a5.69,5.69,0,0,0,6.42-.3c.56-.43,13.83-10.8,10.29-34.67S153.6,1.16,152.84.73A5.61,5.61,0,0,0,150.06,0Z"/><path class="cls-9" d="M161.26,65.58C146.19,56.25,137.91,40.14,139.47,26c1.62-14.74,10.59-20.33,10.59-20.33a43.56,43.56,0,0,1,19.31,30.59C172.46,57.08,161.26,65.58,161.26,65.58Z"/><path class="cls-4" d="M169.37,36.26A44.45,44.45,0,0,0,158.56,13a6.11,6.11,0,0,0,.37,1c3.5,5.89,8.85,24.18,2.39,38.42-.84,1.87-3.74-8.72-4.32-7.28-1,2.44-.22,9-.87,8.91-4.8-.26-10.92-6-13.77-10.21a47.69,47.69,0,0,0,18.9,21.74S172.46,57.08,169.37,36.26Z"/><path class="cls-2" d="M161.8,68c-2.36-2.87-5.21-9.78-7.2-21.37-.82-4.74-1.83-11.62-2.27-16-.26-2.64.33-3.55,1.42-1,1.66,3.91,3.44,11.12,6,17.76a66.74,66.74,0,0,1,3.73,20.11Z"/></g></g></g></svg>